<svg width="91" height="92" viewBox="0 0 91 92" fill="none" xmlns="http://www.w3.org/2000/svg">
<path d="M88.7802 73.7929L68.5995 40.1534C66.9103 37.3414 63.8684 35.6201 60.5865 35.6201C57.3047 35.6201 54.2628 37.3414 52.5736 40.1534L32.378 73.7929C30.1498 77.5199 30.1052 82.157 32.2544 85.9285C34.406 89.7 38.4224 92.0198 42.7652 92H78.4821C82.8125 91.9975 86.8066 89.6679 88.9385 85.8988C91.0703 82.1298 91.0085 77.505 88.7802 73.7929ZM60.5865 79.5206C59.9856 79.5206 59.4464 79.1595 59.2164 78.6056C58.9864 78.0516 59.1126 77.4135 59.5379 76.9881C59.9633 76.5652 60.6014 76.4366 61.1554 76.6666C61.7093 76.8966 62.0704 77.4382 62.0704 78.0367C62.0704 78.8578 61.4051 79.5206 60.5865 79.5206ZM62.0704 71.1516C62.0704 71.9726 61.4051 72.6354 60.5865 72.6354C59.7679 72.6354 59.1027 71.9726 59.1027 71.1516V54.1315C59.1027 53.3129 59.7679 52.6476 60.5865 52.6476C61.4051 52.6476 62.0704 53.3129 62.0704 54.1315V71.1516Z" fill="#66CCCC"/>
<path d="M69.7422 26.7098H65.2906V4.45163C65.2906 1.99334 63.2972 0 60.839 0H4.45163C1.99334 0 0 1.99334 0 4.45163V51.9357C0 54.394 1.99334 56.3873 4.45163 56.3873H17.8065V60.8389C17.8065 63.2972 19.7999 65.2906 22.2582 65.2906H69.7422C72.2005 65.2906 74.1938 63.2972 74.1938 60.8389V31.1614C74.1938 28.7031 72.2005 26.7098 69.7422 26.7098ZM4.45163 53.4196C3.63303 53.4196 2.96775 52.7543 2.96775 51.9357V4.45163C2.96775 3.63302 3.63303 2.96775 4.45163 2.96775H60.839C61.6576 2.96775 62.3228 3.63302 62.3228 4.45163V26.7098H56.3873V13.3549C56.3873 10.8966 54.394 8.90326 51.9357 8.90326H13.3549C10.8966 8.90326 8.90326 10.8966 8.90326 13.3549V29.6775C8.90326 32.1358 10.8966 34.1292 13.3549 34.1292H17.8065V38.5808H10.3871C9.56853 38.5808 8.90326 39.2461 8.90326 40.0647C8.90326 40.8833 9.56853 41.5485 10.3871 41.5485H17.8065V44.5163H10.3871C9.56853 44.5163 8.90326 45.1816 8.90326 46.0002C8.90326 46.8188 9.56853 47.4841 10.3871 47.4841H17.8065V53.4196H4.45163ZM22.2582 26.7098C19.7999 26.7098 17.8065 28.7031 17.8065 31.1614H13.3549C12.5363 31.1614 11.871 30.4961 11.871 29.6775V13.3549C11.871 12.5363 12.5363 11.871 13.3549 11.871H51.9357C52.7543 11.871 53.4196 12.5363 53.4196 13.3549V26.7098H22.2582ZM71.2261 60.8389C71.2261 61.6576 70.5608 62.3228 69.7422 62.3228H22.2582C21.4395 62.3228 20.7743 61.6576 20.7743 60.8389V31.1614C20.7743 30.3428 21.4395 29.6775 22.2582 29.6775H69.7422C70.5608 29.6775 71.2261 30.3428 71.2261 31.1614V60.8389ZM46.0002 37.0969C46.0002 37.9155 45.3349 38.5808 44.5163 38.5808H28.1937C27.3751 38.5808 26.7098 37.9155 26.7098 37.0969C26.7098 36.2783 27.3751 35.613 28.1937 35.613H44.5163C45.3349 35.613 46.0002 36.2783 46.0002 37.0969ZM46.0002 46.0002C46.0002 46.8188 45.3349 47.4841 44.5163 47.4841H28.1937C27.3751 47.4841 26.7098 46.8188 26.7098 46.0002C26.7098 45.1816 27.3751 44.5163 28.1937 44.5163H44.5163C45.3349 44.5163 46.0002 45.1816 46.0002 46.0002ZM34.1292 54.9034C34.1292 55.722 33.4639 56.3873 32.6453 56.3873H28.1937C27.3751 56.3873 26.7098 55.722 26.7098 54.9034C26.7098 54.0848 27.3751 53.4196 28.1937 53.4196H32.6453C33.4639 53.4196 34.1292 54.0848 34.1292 54.9034ZM46.0002 54.9034C46.0002 55.722 45.3349 56.3873 44.5163 56.3873H40.0647C39.2461 56.3873 38.5808 55.722 38.5808 54.9034C38.5808 54.0848 39.2461 53.4196 40.0647 53.4196H44.5163C45.3349 53.4196 46.0002 54.0848 46.0002 54.9034Z" fill="#34353D"/>
</svg>
