<svg height="511pt" viewBox="-76 0 511 511.9997" width="511pt" xmlns="http://www.w3.org/2000/svg"><path d="m147.875 150.164062c-11.679688 0-21.367188-9.234374-21.828125-21.007812-.472656-12.0625 8.925781-22.226562 20.988281-22.695312l111.261719-4.355469 27.648437-62.675781c4.871094-11.046876 17.777344-16.050782 28.824219-11.175782 11.046875 4.871094 16.050781 17.777344 11.175781 28.820313l-33.15625 75.164062c-3.371093 7.640625-10.800781 12.695313-19.144531 13.023438l-124.898437 4.886719c-.289063.011718-.582032.015624-.871094.015624zm0 0" fill="#ffb69e"/><path d="m227.988281 103.292969-80.949219 3.167969c-12.066406.46875-21.460937 10.632812-20.992187 22.695312.460937 11.773438 10.152344 21.007812 21.832031 21.007812.289063 0 .578125-.003906.867188-.015624l79.242187-3.101563zm0 0" fill="#4699f2"/><path d="m178.144531 511.425781c-14.171875-3.003906-23.230469-16.925781-20.226562-31.101562l24.191406-114.242188-32.46875-88.519531c-4.988281-13.601562 1.996094-28.671875 15.597656-33.660156 13.605469-4.992188 28.671875 1.992187 33.660157 15.59375l35.066406 95.605468c1.699218 4.628907 2.058594 9.644532 1.035156 14.46875l-25.753906 121.625c-3.003906 14.175782-16.929688 23.230469-31.101563 20.230469zm0 0" fill="#414b82"/><path d="m304.363281 406.179688-69.996093-60.335938-120.609376-28.496094c-14.101562-3.328125-22.832031-17.460937-19.5-31.5625 3.332032-14.097656 17.460938-22.828125 31.5625-19.496094l126.851563 29.96875c4.097656.96875 7.90625 2.910157 11.09375 5.660157l74.855469 64.523437c10.972656 9.457032 12.199218 26.023438 2.742187 36.996094-9.460937 10.972656-26.023437 12.203125-37 2.742188zm0 0" fill="#5f6e9b"/><path d="m93.542969 291.820312v-157.035156c0-16.902344 13.703125-30.605468 30.605469-30.605468h54.582031c16.902343 0 30.605469 13.703124 30.605469 30.605468v151.234375zm0 0" fill="#64afff"/><path d="m258.167969 65.664062c-5.839844 0-10.738281-4.558593-11.078125-10.464843-.355469-6.125 4.324218-11.378907 10.449218-11.734375l89.714844-5.199219c6.117188-.355469 11.378906 4.324219 11.730469 10.449219.355469 6.125-4.320313 11.378906-10.445313 11.734375l-89.71875 5.199219c-.214843.011718-.433593.015624-.652343.015624zm0 0" fill="#50555a"/><path d="m265.816406 55.691406c0 11.972656-9.703125 21.675782-21.675781 21.675782s-21.675781-9.703126-21.675781-21.675782 9.703125-21.675781 21.675781-21.675781 21.675781 9.703125 21.675781 21.675781zm0 0" fill="#373c41"/><path d="m196.984375 45.308594c0 25.019531-20.285156 45.304687-45.304687 45.304687-25.023438 0-45.308594-20.285156-45.308594-45.304687 0-25.023438 20.285156-45.308594 45.308594-45.308594 25.019531 0 45.304687 20.285156 45.304687 45.308594zm0 0" fill="#ffb69e"/><path d="m1.273438 240.53125 22.921874-84.277344c1.921876-7.066406 7.25-12.695312 14.195313-15.007812l101.03125-33.585938c11.457031-3.808594 23.832031 2.394532 27.640625 13.851563 3.816406 11.453125-2.394531 23.832031-13.851562 27.640625l-89.90625 29.886718-19.84375 72.96875c-3.167969 11.652344-15.183594 18.527344-26.832032 15.355469-11.636718-3.164062-18.53125-15.171875-15.355468-26.832031zm0 0" fill="#ffb69e"/><path d="m167.0625 121.507812c-3.808594-11.457031-16.183594-17.65625-27.640625-13.847656l-57.359375 19.066406 11.480469 42.261719 59.671875-19.839843c11.453125-3.808594 17.664062-16.183594 13.847656-27.640626zm0 0" fill="#4699f2"/></svg>