<?xml version="1.0"?>
<svg xmlns="http://www.w3.org/2000/svg" xmlns:xlink="http://www.w3.org/1999/xlink" xmlns:svgjs="http://svgjs.com/svgjs" version="1.1" width="512" height="512" x="0" y="0" viewBox="0 0 512 512" style="enable-background:new 0 0 512 512" xml:space="preserve" class=""><g><path xmlns="http://www.w3.org/2000/svg" d="m512 428h-84v84h-40v-84h-84v-40h84v-84h40v84h84zm-212.695312-204.5625c1.757812 7.910156 2.695312 16.128906 2.695312 24.5625 0 34.550781-15.59375 65.527344-40.105469 86.269531.699219.277344 1.40625.546875 2.105469.832031v44.199219c-21.414062-11.667969-45.945312-18.300781-72-18.300781v-.039062c-.332031.007812-.667969.007812-1 .015624v.023438c-83.261719 0-151 67.738281-151 151h-40c0-79.371094 48.671875-147.582031 117.730469-176.378906-25.449219-20.734375-41.730469-52.3125-41.730469-87.621094 0-62.308594 50.691406-113 113-113 7.40625 0 14.644531.722656 21.65625 2.089844-1.734375-7.84375-2.65625-15.988282-2.65625-24.34375 0-62.167969 50.578125-112.746094 112.746094-112.746094 62.167968 0 112.746094 50.578125 112.746094 112.746094 0 34.894531-15.9375 66.136718-40.910157 86.832031 33.011719 13.109375 61.464844 35.117187 82.304688 63.421875h-53.847657c-24.847656-22.023438-56.976562-36-92.273437-37.796875-2.652344.1875-5.324219.289063-8.019531.289063-7.332032 0-14.5-.710938-21.441406-2.054688zm-51.304688-110.691406c0 40.113281 32.632812 72.746094 72.746094 72.746094 40.109375 0 72.746094-32.632813 72.746094-72.746094 0-40.113282-32.636719-72.746094-72.746094-72.746094-40.113282 0-72.746094 32.632812-72.746094 72.746094zm14 135.253906c0-40.253906-32.746094-73-73-73s-73 32.746094-73 73 32.746094 73 73 73 73-32.746094 73-73zm0 0" fill="#8c8c8c" data-original="#000000" style="" class=""/></g></svg>
