<svg width="30" height="30" viewBox="0 0 30 30" fill="none" xmlns="http://www.w3.org/2000/svg">
<path d="M29.5 14.9833C29.5 22.9817 23.0087 29.4667 15 29.4667C6.99135 29.4667 0.5 22.9817 0.5 14.9833C0.5 6.98493 6.99135 0.5 15 0.5C23.0087 0.5 29.5 6.98493 29.5 14.9833Z" stroke="#66CCCC"/>
<path d="M19.3536 15.8536C19.5488 15.6583 19.5488 15.3417 19.3536 15.1464L16.1716 11.9645C15.9763 11.7692 15.6597 11.7692 15.4645 11.9645C15.2692 12.1597 15.2692 12.4763 15.4645 12.6716L18.2929 15.5L15.4645 18.3284C15.2692 18.5237 15.2692 18.8403 15.4645 19.0355C15.6597 19.2308 15.9763 19.2308 16.1716 19.0355L19.3536 15.8536ZM10 16H19V15H10V16Z" fill="#66CCCC"/>
</svg>
