<svg width="30" height="31" viewBox="0 0 30 31" fill="none" xmlns="http://www.w3.org/2000/svg">
<path d="M29.5 15.5C29.5 23.7999 22.9928 30.5 15 30.5C7.0072 30.5 0.5 23.7999 0.5 15.5C0.5 7.20015 7.0072 0.5 15 0.5C22.9928 0.5 29.5 7.20015 29.5 15.5Z" stroke="#66CCCC"/>
<path d="M11.6464 15.1464C11.4512 15.3417 11.4512 15.6583 11.6464 15.8536L14.8284 19.0355C15.0237 19.2308 15.3403 19.2308 15.5355 19.0355C15.7308 18.8403 15.7308 18.5237 15.5355 18.3284L12.7071 15.5L15.5355 12.6716C15.7308 12.4763 15.7308 12.1597 15.5355 11.9645C15.3403 11.7692 15.0237 11.7692 14.8284 11.9645L11.6464 15.1464ZM20 15L12 15L12 16L20 16L20 15Z" fill="#66CCCC"/>
</svg>
