<svg width="12" height="10" viewBox="0 0 12 10" fill="none" xmlns="http://www.w3.org/2000/svg">
<path d="M5.57596 1.76494L6 2.44362L6.42404 1.76494C6.90641 0.992894 7.75612 0.5 8.72727 0.5C10.2425 0.5 11.5 1.76745 11.5 3.33333C11.5 4.01896 11.189 4.7499 10.6567 5.4891C10.128 6.22341 9.41251 6.92206 8.67991 7.53256C7.94969 8.14107 7.21701 8.65008 6.66555 9.00751C6.39031 9.1859 6.1614 9.32577 6.00207 9.42061C6.0017 9.42084 6.00132 9.42106 6.00095 9.42128C6.0004 9.42095 5.99984 9.42062 5.99929 9.42029C5.83989 9.32472 5.61091 9.18385 5.33558 9.00434C4.78398 8.64469 4.05107 8.13298 3.32062 7.52258C2.58777 6.91017 1.87195 6.21044 1.34304 5.47706C0.810328 4.73842 0.5 4.01121 0.5 3.33333C0.5 1.76745 1.75748 0.5 3.27273 0.5C4.24388 0.5 5.09359 0.992894 5.57596 1.76494Z" stroke="white"/>
</svg>
