<svg width="14" height="12" viewBox="0 0 14 12" fill="none" xmlns="http://www.w3.org/2000/svg">
<path d="M1 1H4.49999C5.11883 1 5.71232 1.24583 6.14991 1.68342C6.58749 2.121 6.83332 2.71449 6.83332 3.33333V11.5C6.83332 11.0359 6.64895 10.5907 6.32076 10.2625C5.99257 9.93436 5.54745 9.74998 5.08333 9.74998H1V1Z" stroke="#8C8C8C" stroke-linecap="round" stroke-linejoin="round"/>
<path d="M12.6663 1H9.16634C8.5475 1 7.95401 1.24583 7.51642 1.68342C7.07884 2.121 6.83301 2.71449 6.83301 3.33333V11.5C6.83301 11.0359 7.01738 10.5907 7.34557 10.2625C7.67376 9.93436 8.11888 9.74998 8.583 9.74998H12.6663V1Z" stroke="#8C8C8C" stroke-linecap="round" stroke-linejoin="round"/>
</svg>
