<svg height="512" viewBox="0 0 512 512" width="512" xmlns="http://www.w3.org/2000/svg"><g id="Solid" fill="#FFFFFF"><path d="m104 72h48a24 24 0 0 0 24-24 24 24 0 0 0 -24-24h-104a24 24 0 0 0 -24 24v104a24 24 0 0 0 48 0v-48l116 116a22.627 22.627 0 0 0 32 0 22.627 22.627 0 0 0 0-32z"/><path d="m220 292a22.627 22.627 0 0 0 -32 0l-116 116v-48a24 24 0 0 0 -48 0v104a24 24 0 0 0 24 24h104a24 24 0 0 0 24-24 24 24 0 0 0 -24-24h-48l116-116a22.627 22.627 0 0 0 0-32z"/><path d="m464 24h-104a24 24 0 0 0 -24 24 24 24 0 0 0 24 24h48l-116 116a22.627 22.627 0 0 0 0 32 22.627 22.627 0 0 0 32 0l116-116v48a24 24 0 0 0 48 0v-104a24 24 0 0 0 -24-24z"/><path d="m464 336a24 24 0 0 0 -24 24v48l-116-116a22.627 22.627 0 0 0 -32 0 22.627 22.627 0 0 0 0 32l116 116h-48a24 24 0 0 0 -24 24 24 24 0 0 0 24 24h104a24 24 0 0 0 24-24v-104a24 24 0 0 0 -24-24z"/></g></svg>