<svg width="14" height="12" viewBox="0 0 14 12" fill="none" xmlns="http://www.w3.org/2000/svg">
<path d="M8 0C6.4087 0 4.88258 0.632141 3.75736 1.75736C2.63214 2.88258 2 4.4087 2 6H0L2.59333 8.59333L2.64 8.68666L5.33333 6H3.33333C3.33333 3.42 5.42 1.33333 8 1.33333C10.58 1.33333 12.6667 3.42 12.6667 6C12.6667 8.58 10.58 10.6667 8 10.6667C6.71333 10.6667 5.54667 10.14 4.70667 9.29333L3.76 10.24C4.31561 10.7987 4.97633 11.2418 5.70404 11.5439C6.43176 11.846 7.21208 12.001 8 12C9.5913 12 11.1174 11.3679 12.2426 10.2426C13.3679 9.11742 14 7.5913 14 6C14 4.4087 13.3679 2.88258 12.2426 1.75736C11.1174 0.632141 9.5913 2.37122e-08 8 0ZM7.33333 3.33333V6.66666L10.1667 8.34666L10.68 7.48666L8.33333 6.09333V3.33333H7.33333Z" fill="#8C8C8C"/>
</svg>
