<svg width="26" height="26" viewBox="0 0 26 26" fill="none" xmlns="http://www.w3.org/2000/svg">
<path fill-rule="evenodd" clip-rule="evenodd" d="M12.9326 25.4698C19.8084 25.4698 25.3824 19.9265 25.3824 13.0884C25.3824 6.25037 19.8084 0.707031 12.9326 0.707031C6.05684 0.707031 0.48291 6.25037 0.48291 13.0884C0.48291 19.9265 6.05684 25.4698 12.9326 25.4698Z" fill="white"/>
<path fill-rule="evenodd" clip-rule="evenodd" d="M11.0644 8.71484C11.6407 8.71484 12.1078 9.1228 12.1078 9.62603V16.5511C12.1078 17.0543 11.6407 17.4623 11.0644 17.4623C10.4882 17.4623 10.021 17.0543 10.021 16.5511V9.62603C10.021 9.1228 10.4882 8.71484 11.0644 8.71484Z" fill="#DADADA"/>
<path fill-rule="evenodd" clip-rule="evenodd" d="M14.8008 8.71484C15.377 8.71484 15.8442 9.1228 15.8442 9.62603V16.5511C15.8442 17.0543 15.377 17.4623 14.8008 17.4623C14.2245 17.4623 13.7573 17.0543 13.7573 16.5511V9.62603C13.7573 9.1228 14.2245 8.71484 14.8008 8.71484Z" fill="#DADADA"/>
</svg>
