<svg width="15" height="11" viewBox="0 0 15 11" fill="none" xmlns="http://www.w3.org/2000/svg">
<line x1="14.0625" y1="3.625" x2="-9.53674e-07" y2="3.625" stroke="#8C8C8C" stroke-width="1.5"/>
<line x1="14.0625" y1="0.75" x2="-9.53674e-07" y2="0.75" stroke="#8C8C8C" stroke-width="1.5"/>
<line x1="8" y1="6.75" y2="6.75" stroke="#8C8C8C" stroke-width="1.5"/>
<line x1="8" y1="9.75" y2="9.75" stroke="#8C8C8C" stroke-width="1.5"/>
<path d="M14.8167 7.65846C14.875 7.69403 14.9229 7.74674 14.955 7.8106L10.0446 5.20105M14.8167 7.65846L10.5292 5.04934C10.3571 4.94434 10.1404 5.01248 10.0446 5.20105M14.8167 7.65846L14.6224 7.97772L14.6207 7.9805L14.6088 8.00003M14.8167 7.65846L14.6218 7.978L14.6201 7.9808L14.6086 7.99968M10.0446 5.20105L10.3438 5.35312L10.3442 5.35331L10.4182 5.39091L10.4903 5.42758C10.4794 5.44912 10.453 5.47805 10.4079 5.49221C10.3614 5.50678 10.309 5.5005 10.2692 5.47647C10.2692 5.47643 10.2691 5.47638 10.269 5.47634L10.2692 5.47647L10.5 5.61689V5.39091C10.5 5.40154 10.4976 5.41308 10.4917 5.42481L10.424 5.39091L10.3453 5.35152L10.3449 5.35134L10.0446 5.20105ZM14.5566 7.91458L14.4162 8.00003L14.5564 8.08535M14.5566 7.91458C14.5198 7.93699 14.5064 7.9661 14.5024 7.98123C14.4985 7.99607 14.4986 8.01493 14.5083 8.03506C14.5084 8.03541 14.5086 8.03577 14.5088 8.03612M14.5566 7.91458L14.6015 7.98825L14.6024 7.98981L14.6085 7.99985M14.5566 7.91458L14.5568 7.91447L14.6016 7.98816L14.6026 7.98973L14.6086 7.99968M14.5088 8.03612C14.5087 8.03604 14.5087 8.03596 14.5086 8.03587M14.5088 8.03612C14.5089 8.03645 14.5091 8.03679 14.5093 8.03713L14.5086 8.03587M14.5088 8.03612C14.509 8.03645 14.5091 8.03678 14.5093 8.03712C14.5174 8.05236 14.5321 8.07056 14.5564 8.08535M14.5086 8.03587C14.5085 8.03561 14.5084 8.03534 14.5082 8.03507L14.5082 8.03508L14.5086 8.03587ZM14.5564 8.08535L14.5568 8.08559L14.6087 8.0002M14.5564 8.08535L14.6085 7.99985M14.6085 7.99985L14.6086 7.99968M14.6085 7.99985L14.6087 8.0002M14.6086 7.99968L14.6088 8.00003M14.6087 8.0002L14.8167 8.3416L14.6088 8.00003M14.6087 8.0002L14.6088 8.00003M10.5 10.3832L10.2692 10.5236L10.2676 10.5246C10.2682 10.5242 10.2687 10.5239 10.2692 10.5236C10.2943 10.5086 10.3239 10.5001 10.3549 10.5L10.3552 10.6096L10.3553 10.6651L10.3554 10.6675L10.3563 11V10.669V10.6666V10.6096V10.5C10.4117 10.5 10.4528 10.5257 10.4737 10.5486C10.494 10.5708 10.5 10.5936 10.5 10.6096V10.3832Z" stroke="#8C8C8C"/>
</svg>
