<svg width="13" height="13" viewBox="0 0 13 13" fill="#66CCCC" xmlns="http://www.w3.org/2000/svg">
<path d="M1.9038 11.0962C4.44222 13.6346 8.55779 13.6346 11.0962 11.0962C13.6346 8.55779 13.6346 4.44222 11.0962 1.9038C8.55779 -0.634601 4.44222 -0.634601 1.9038 1.9038C-0.634601 4.44221 -0.634601 8.55778 1.9038 11.0962ZM2.53837 10.4616C0.350399 8.27366 0.350399 4.72633 2.53837 2.53836C4.72634 0.350389 8.27367 0.350389 10.4616 2.53836C12.6496 4.72634 12.6496 8.27367 10.4616 10.4616C8.27369 12.6496 4.72635 12.6496 2.53837 10.4616ZM3.17236 10.1228L7.48522 7.48521L10.1228 3.17236L9.82765 2.87724L5.51479 5.51478L2.87725 9.82764L3.17236 10.1228Z" />
</svg>
