<svg width="9" height="9" viewBox="0 0 9 9" fill="none" xmlns="http://www.w3.org/2000/svg">
<path fill-rule="evenodd" clip-rule="evenodd" d="M6.71771 5.56777L8.78687 7.63708C9.071 7.92122 9.071 8.38159 8.7871 8.66579C8.64481 8.80771 8.4588 8.8784 8.27256 8.8784C8.08654 8.8784 7.90031 8.80771 7.75824 8.66579L5.7137 6.62111C5.12483 7.03154 4.4092 7.27309 3.63658 7.27309C1.62804 7.27309 0 5.64521 0 3.63658C0 1.62804 1.62811 0 3.63658 0C5.64506 0 7.27332 1.62804 7.27332 3.63658C7.27332 4.34654 7.06928 5.00807 6.71771 5.56777ZM1.17843 3.63685C1.17843 4.99447 2.27905 6.095 3.63659 6.095C4.99421 6.095 6.09475 4.99447 6.09475 3.63685C6.09475 2.27923 4.99421 1.17861 3.63659 1.17861C2.27905 1.17861 1.17843 2.27923 1.17843 3.63685Z" fill="#D8D8D8"/>
</svg>
