<svg width="11" height="12" viewBox="0 0 11 12" fill="none" xmlns="http://www.w3.org/2000/svg">
<path d="M8.44241 4.11528C9.30267 4.11528 10 3.4179 10 2.55764C10 1.69738 9.30267 1 8.44241 1C7.58215 1 6.88477 1.69738 6.88477 2.55764C6.88477 3.4179 7.58215 4.11528 8.44241 4.11528Z" stroke="white" stroke-linecap="round" stroke-linejoin="round"/>
<path d="M2.21194 7.75005C3.0722 7.75005 3.76958 7.05267 3.76958 6.19241C3.76958 5.33215 3.0722 4.63477 2.21194 4.63477C1.35168 4.63477 0.654297 5.33215 0.654297 6.19241C0.654297 7.05267 1.35168 7.75005 2.21194 7.75005Z" stroke="white" stroke-linecap="round" stroke-linejoin="round"/>
<path d="M8.44241 11.3838C9.30267 11.3838 10 10.6865 10 9.8262C10 8.96593 9.30267 8.26855 8.44241 8.26855C7.58215 8.26855 6.88477 8.96593 6.88477 9.8262C6.88477 10.6865 7.58215 11.3838 8.44241 11.3838Z" stroke="white" stroke-linecap="round" stroke-linejoin="round"/>
<path d="M3.55664 6.97656L7.10287 9.04303" stroke="white" stroke-linecap="round" stroke-linejoin="round"/>
<path d="M7.09768 3.3418L3.55664 5.40827" stroke="white" stroke-linecap="round" stroke-linejoin="round"/>
</svg>
