<svg width="14" height="8" viewBox="0 0 14 8" fill="none" xmlns="http://www.w3.org/2000/svg">
<path d="M9.62135 0.566742L10.5813 1.52674L7.32801 4.78008L5.13468 2.58674C5.073 2.52494 4.99975 2.47591 4.9191 2.44245C4.83845 2.409 4.75199 2.39178 4.66468 2.39178C4.57737 2.39178 4.49091 2.409 4.41026 2.44245C4.32962 2.47591 4.25636 2.52494 4.19468 2.58674L0.19468 6.59341C0.132959 6.65513 0.0839991 6.7284 0.0505958 6.80905C0.0171924 6.88969 1.4542e-09 6.97612 0 7.06341C-1.4542e-09 7.1507 0.0171924 7.23713 0.0505958 7.31777C0.0839991 7.39841 0.132959 7.47169 0.19468 7.53341C0.256402 7.59513 0.329675 7.64409 0.410318 7.67749C0.490961 7.7109 0.577393 7.72809 0.66468 7.72809C0.751967 7.72809 0.8384 7.7109 0.919043 7.67749C0.999685 7.64409 1.07296 7.59513 1.13468 7.53341L4.66135 4.00007L6.85468 6.19341C7.11468 6.45341 7.53468 6.45341 7.79468 6.19341L11.5213 2.47341L12.4813 3.43341C12.5279 3.47909 12.5869 3.51009 12.651 3.52257C12.715 3.53505 12.7813 3.52846 12.8416 3.50362C12.902 3.47878 12.9537 3.43677 12.9904 3.38281C13.0271 3.32886 13.0471 3.26532 13.048 3.20008V0.333409C13.0498 0.28971 13.0427 0.2461 13.027 0.205271C13.0113 0.164442 12.9875 0.12726 12.9568 0.0960227C12.9262 0.0647853 12.8895 0.040155 12.849 0.0236525C12.8085 0.00715001 12.7651 -0.000874161 12.7213 7.5438e-05H9.86135C9.79554 -0.000311138 9.73109 0.0187913 9.67612 0.0549753C9.62115 0.0911593 9.57812 0.142806 9.55245 0.203405C9.52678 0.264005 9.51963 0.330846 9.53189 0.395504C9.54415 0.460163 9.57528 0.519745 9.62135 0.566742Z" fill="#8C8C8C"/>
</svg>
