<svg width="16" height="13" viewBox="0 0 16 13" fill="none" xmlns="http://www.w3.org/2000/svg">
<path d="M16 1.54424C15.4116 1.79808 14.7713 1.98078 14.1118 2.05193C14.7965 1.64508 15.3093 1.00231 15.5539 0.244239C14.9113 0.626525 14.2074 0.894591 13.4734 1.03655C13.1666 0.70852 12.7955 0.4472 12.3833 0.268868C11.9711 0.0905369 11.5266 -0.000984199 11.0775 7.98154e-06C9.26043 7.98154e-06 7.79906 1.47308 7.79906 3.28078C7.79906 3.53462 7.82983 3.78847 7.87982 4.0327C5.159 3.89039 2.73236 2.59039 1.1191 0.600008C0.825142 1.10215 0.671099 1.6739 0.672996 2.25578C0.672996 3.39424 1.25177 4.39808 2.13436 4.98847C1.61424 4.96798 1.1063 4.825 0.651845 4.57116V4.61154C0.651845 6.20577 1.77863 7.52693 3.28038 7.83077C2.99841 7.90402 2.70834 7.9415 2.41702 7.94231C2.20358 7.94231 2.00168 7.92116 1.79786 7.89231C2.2132 9.19231 3.42267 10.1365 4.86288 10.1673C3.73609 11.05 2.32472 11.5692 0.792213 11.5692C0.517246 11.5692 0.26343 11.5596 0 11.5288C1.45367 12.4615 3.17846 13 5.03593 13C11.066 13 14.3656 8.00385 14.3656 3.66731C14.3656 3.52501 14.3656 3.3827 14.356 3.24039C14.9944 2.77308 15.5539 2.19424 16 1.54424Z" fill="#66CCCC"/>
</svg>
