<svg width="21" height="14" viewBox="0 0 21 14" fill="none" xmlns="http://www.w3.org/2000/svg">
<path d="M20.79 3.06667C20.79 3.06667 20.58 1.66667 19.95 1.06667C19.18 0.266667 18.27 0.266667 17.85 0.2C14.91 1.19209e-07 10.5 0 10.5 0C10.5 0 6.09 1.19209e-07 3.15 0.2C2.73 0.266667 1.82 0.266667 1.05 1.06667C0.42 1.66667 0.21 3.06667 0.21 3.06667C0.21 3.06667 0 4.66667 0 6.26667V7.73333C0 9.33333 0.21 11 0.21 11C0.21 11 0.42 12.4 1.05 13C1.82 13.8 2.87 13.8 3.36 13.8667C5.04 13.9333 10.5 14 10.5 14C10.5 14 14.91 14 17.85 13.8C18.27 13.7333 19.18 13.7333 19.95 12.9333C20.58 12.3333 20.79 10.9333 20.79 10.9333C20.79 10.9333 21 9.33333 21 7.73333V6.26667C21 4.66667 20.79 3.06667 20.79 3.06667ZM8.33 9.6V4L14 6.8L8.33 9.6Z" fill="#D8D8D8"/>
</svg>
