<svg width="15" height="15" viewBox="0 0 15 15" fill="none" xmlns="http://www.w3.org/2000/svg">
<path d="M1 8.99202C0.558724 8.99202 0.201 9.34974 0.201 9.79102C0.201 10.2323 0.558724 10.59 1 10.59V8.99202ZM14 10.59C14.4413 10.59 14.799 10.2323 14.799 9.79102C14.799 9.34974 14.4413 8.99202 14 8.99202V10.59ZM1 12.5082C0.558724 12.5082 0.201 12.8659 0.201 13.3072C0.201 13.7485 0.558724 14.1062 1 14.1062V12.5082ZM14 14.1062C14.4413 14.1062 14.799 13.7485 14.799 13.3072C14.799 12.8659 14.4413 12.5082 14 12.5082V14.1062ZM1 10.59H14V8.99202H1V10.59ZM1 14.1062H14V12.5082H1V14.1062Z" fill="white"/>
<rect x="1" y="1" width="13" height="5.27436" rx="1" stroke="white" stroke-width="1.598" stroke-linecap="square"/>
</svg>
