<svg width="9" height="8" viewBox="0 0 9 8" fill="none" xmlns="http://www.w3.org/2000/svg">
<path fill-rule="evenodd" clip-rule="evenodd" d="M1.41278 0.332296C1.33694 0.289272 1.25072 0.266602 1.16293 0.266602C0.889029 0.266602 0.666992 0.482584 0.666992 0.749012V3.15315V5.09754V7.50168C0.666992 7.58708 0.690298 7.67095 0.734529 7.74472C0.872518 7.97486 1.17618 8.05262 1.41278 7.91839L6.38502 5.09754V7.17179C6.38502 7.62045 6.75074 7.98417 7.20188 7.98417C7.65302 7.98417 8.01874 7.62045 8.01874 7.17179V1.07898C8.01874 0.630314 7.65302 0.266602 7.20188 0.266602C6.75074 0.266602 6.38502 0.630314 6.38502 1.07898V3.15315L1.41278 0.332296Z" fill="white"/>
</svg>
