<svg width="8" height="8" viewBox="0 0 8 8" fill="none" xmlns="http://www.w3.org/2000/svg">
<path fill-rule="evenodd" clip-rule="evenodd" d="M6.80597 0.332296C6.88181 0.289272 6.96803 0.266602 7.05582 0.266602C7.32972 0.266602 7.55176 0.482584 7.55176 0.749012V3.15315V5.09754V7.50168C7.55176 7.58708 7.52845 7.67095 7.48422 7.74472C7.34623 7.97486 7.04257 8.05262 6.80597 7.91839L1.83373 5.09754V7.17179C1.83373 7.62045 1.46801 7.98417 1.01687 7.98417C0.565733 7.98417 0.200012 7.62045 0.200012 7.17179V1.07898C0.200012 0.630314 0.565733 0.266602 1.01687 0.266602C1.46801 0.266602 1.83373 0.630314 1.83373 1.07898V3.15315L6.80597 0.332296Z" fill="white"/>
</svg>
