<svg width="19" height="12" viewBox="0 0 19 12" fill="none" xmlns="http://www.w3.org/2000/svg">
<g opacity="0.7">
<path d="M6.90334 11.6889C6.80516 11.6889 6.70717 11.6524 6.63219 11.5793L4.44336 9.44356L6.63219 7.30784C6.78196 7.16171 7.02473 7.16171 7.1745 7.30784C7.32427 7.45398 7.32427 7.69087 7.1745 7.837L5.52799 9.44356L7.1745 11.0501C7.32427 11.1962 7.32427 11.4331 7.1745 11.5793C7.09952 11.6524 7.00153 11.6889 6.90334 11.6889Z" fill="#34353D"/>
<path d="M14.1903 9.81798H5.27318C5.06147 9.81798 4.88965 9.65033 4.88965 9.44376C4.88965 9.23719 5.06147 9.06953 5.27318 9.06953H14.1903C16.0936 9.06953 17.6421 7.5586 17.6421 5.70151C17.6421 4.3369 16.8078 3.11599 15.5168 2.59095C15.3212 2.51143 15.2289 2.29232 15.3104 2.10165C15.3916 1.91098 15.6155 1.82004 15.8119 1.90032C17.3898 2.54155 18.4092 4.03377 18.4092 5.70151C18.4092 7.97137 16.5167 9.81798 14.1903 9.81798Z" fill="#34353D"/>
<path d="M11.506 4.4906C11.4079 4.4906 11.3099 4.45411 11.2349 4.38095C11.0851 4.23482 11.0851 3.99794 11.2349 3.85181L12.8814 2.24528L11.2349 0.638748C11.0851 0.492615 11.0851 0.255733 11.2349 0.1096C11.3847 -0.0365333 11.6274 -0.0365333 11.7772 0.1096L13.966 2.24528L11.7772 4.38095C11.7022 4.45411 11.6042 4.4906 11.506 4.4906Z" fill="#34353D"/>
<path d="M2.74456 9.81791C2.69547 9.81791 2.64542 9.80855 2.59709 9.7889C1.01943 9.14749 0 7.65527 0 5.98755C0 3.7177 1.89254 1.87109 4.21886 1.87109H13.136C13.3477 1.87109 13.5195 2.03875 13.5195 2.24532C13.5195 2.45189 13.3477 2.61954 13.136 2.61954H4.21886C2.31558 2.61954 0.767066 4.13047 0.767066 5.98755C0.767066 7.35215 1.60144 8.57305 2.89241 9.09809C3.08802 9.17761 3.18026 9.39672 3.09875 9.58739C3.03758 9.73109 2.89491 9.81791 2.74456 9.81791Z" fill="#34353D"/>
</g>
</svg>
