<svg width="18" height="12" viewBox="0 0 18 12" fill="none" xmlns="http://www.w3.org/2000/svg">
<path d="M17.4798 9.51507H16.0402C13.6649 9.51507 11.3515 8.67489 9.52604 7.14927C9.37167 7.02037 9.35382 6.79381 9.48593 6.64319C9.61804 6.49256 9.85025 6.47479 10.0048 6.60405C11.697 8.01818 13.8404 8.79697 16.0402 8.79697H17.4798C17.683 8.79697 17.8478 8.95782 17.8478 9.15602C17.8478 9.35422 17.683 9.51507 17.4798 9.51507Z" fill="#34353D"/>
<path d="M7.32782 4.72146C7.24024 4.72146 7.15229 4.69112 7.08219 4.62954C5.39126 3.14878 3.21128 2.33335 0.943347 2.33335H0.367992C0.16486 2.33335 0 2.17249 0 1.97429C0 1.77609 0.16486 1.61523 0.367992 1.61523H0.943347C3.39288 1.61523 5.74766 2.49583 7.57382 4.09508C7.72507 4.22739 7.73758 4.4545 7.60179 4.60207C7.52911 4.68124 7.42865 4.72146 7.32782 4.72146Z" fill="#34353D"/>
<path d="M15.6394 11.3106C15.5452 11.3106 15.451 11.2756 15.3793 11.2054C15.2356 11.0652 15.2356 10.8379 15.3793 10.6977L16.9589 9.15625L15.3793 7.61482C15.2356 7.47461 15.2356 7.24732 15.3793 7.10711C15.5228 6.9669 15.7561 6.9669 15.8996 7.10711L17.9999 9.15625L15.8996 11.2054C15.8278 11.2756 15.7336 11.3106 15.6394 11.3106Z" fill="#34353D"/>
<path d="M15.6394 4.30871C15.5452 4.30871 15.451 4.2737 15.3793 4.2035C15.2356 4.06329 15.2356 3.836 15.3793 3.69579L16.9589 2.15433L15.3793 0.612875C15.2356 0.472661 15.2356 0.245375 15.3793 0.105161C15.5228 -0.0350535 15.7561 -0.0350535 15.8996 0.105161L17.9999 2.15433L15.8996 4.2035C15.8278 4.2737 15.7336 4.30871 15.6394 4.30871Z" fill="#34353D"/>
<path d="M0.943346 9.69423H0.367992C0.16486 9.69423 0 9.53337 0 9.33517C0 9.13697 0.16486 8.97611 0.367992 8.97611H0.943346C3.72555 8.97611 6.32743 7.76052 8.10097 5.63614L8.17567 5.52789C10.1071 3.15558 12.9735 1.79492 16.04 1.79492H17.4796C17.6827 1.79492 17.8476 1.95578 17.8476 2.15398C17.8476 2.35218 17.6827 2.51304 17.4796 2.51304H16.04C13.2385 2.51304 10.6162 3.74013 8.82646 5.88407L8.75176 5.99251C6.83673 8.34489 3.9905 9.69423 0.943346 9.69423Z" fill="#34353D"/>
</svg>
