<svg width="13" height="10" viewBox="0 0 13 10" fill="none" xmlns="http://www.w3.org/2000/svg">
<path fill-rule="evenodd" clip-rule="evenodd" d="M12.1152 5.19055C12.115 6.8223 11.4583 8.38613 10.2916 9.53345L9.5238 8.72214C10.4571 7.78235 10.9752 6.51136 10.9635 5.19055C10.9752 3.86975 10.4571 2.59876 9.5238 1.65897L10.2916 0.847656C11.4583 1.99498 12.115 3.55881 12.1152 5.19055ZM0.598145 3.66337H2.90156L5.97278 1.37261V9.00847L2.90156 6.71772H0.598145V3.66337ZM8.42012 7.62448C9.06755 6.97835 9.43009 6.10272 9.42785 5.19055C9.43009 4.27837 9.06755 3.40274 8.42012 2.75661L7.60434 3.56792C8.03596 3.99867 8.27766 4.58243 8.27616 5.19055C8.27766 5.79866 8.03596 6.38242 7.60434 6.81317L8.42012 7.62448Z" fill="white"/>
</svg>
