<svg width="38" height="29" viewBox="0 0 38 29" fill="none" xmlns="http://www.w3.org/2000/svg">
<g clip-path="url(#clip0)">
<path d="M17.3616 9.39784C17.9535 5.23325 20.3776 2.68386 21.7932 1.89825C21.9695 1.80079 22.1447 1.7164 22.3152 1.64271C13.0343 1.18157 12.4495 2.44259 10.1485 10.4402C9.91418 11.2531 8.19198 17.4323 8.66189 18.3748C8.95069 18.9536 13.3384 20.4654 16.7746 21.2605C16.2845 18.8181 16.0679 17.5166 16.6455 13.9962C16.8479 12.7744 17.0977 11.2531 17.3616 9.39784Z" fill="#66CCCC"/>
<path d="M18.5938 28.9698C23.6006 28.656 29.8609 23.8627 29.8609 23.8627C23.2882 23.4705 15.5424 22.4483 11.318 20.4849C8.32813 19.0955 7.33742 19.4366 7.0131 19.754C6.50532 19.9726 5.5371 20.4243 3.80662 21.2705C-1.98375 24.0992 -0.0271916 24.2561 2.24185 24.3345C4.51089 24.413 10.6137 27.0051 10.6137 27.0051C10.6137 27.0051 13.5859 29.2847 18.5938 28.9698Z" fill="#66CCCC"/>
<path d="M37.377 18.7681C37.493 7.48547 36.9012 3.44448 28.3458 2.15137C28.8986 2.4687 29.4584 2.89063 29.9781 3.4528C31.7855 5.4103 32.5075 8.4042 32.1252 12.3525C31.531 18.4888 31.2386 21.5219 31.099 22.9886C32.7999 23.0742 34.2581 23.0385 35.0251 22.7746C37.7569 21.8321 37.377 18.7681 37.377 18.7681Z" fill="#66CCCC"/>
<path d="M27.5303 1.87043C27.5303 1.87043 25.8176 -2.09092 23.3224 1.51625C23.3224 1.51625 25.4057 0.976658 27.5303 1.87043Z" fill="#66CCCC"/>
<path d="M20.6675 22.1209C20.6675 22.1209 25.7205 22.5951 29.8928 22.9113C30.0325 21.4589 30.3237 18.4258 30.9226 12.2359C31.2694 8.6573 30.6575 5.91537 29.1045 4.22291C27.361 2.32246 24.9724 2.2666 24.9476 2.2666H24.9381C24.9192 2.2666 24.9014 2.33078 24.8837 2.3284C24.8304 2.33672 24.776 2.37476 24.7191 2.36763C24.5262 2.34623 19.5324 2.69328 18.5559 9.55226C18.2896 11.4206 18.0387 12.9574 17.8375 14.1863C17.2267 17.9064 17.4741 19.0165 18.0754 21.554C19.5893 21.8927 20.6675 22.1209 20.6675 22.1209Z" fill="#66CCCC"/>
</g>
<defs>
<clipPath id="clip0">
<rect width="37.3947" height="29" fill="white"/>
</clipPath>
</defs>
</svg>
