<svg width="43" height="29" viewBox="0 0 43 29" fill="#FFFFFF" xmlns="http://www.w3.org/2000/svg">
<g clip-path="url(#clip0)">
<path d="M32.3422 23.7015C31.966 22.6305 30.5433 21.8223 29.1823 21.8223H13.6185C12.2575 21.8223 10.8362 22.632 10.4587 23.7015L9.28861 27.0394C8.91247 28.1104 9.71787 29.0005 11.0789 29.0005H31.7234C33.0844 29.0005 33.8898 28.1233 33.5122 27.0538L32.3422 23.7015ZM13.3127 26.9375C12.4025 26.9375 11.666 26.1995 11.666 25.2908C11.666 24.3806 12.404 23.6441 13.3127 23.6441C14.2229 23.6441 14.9608 24.382 14.9608 25.2908C14.9594 26.1995 14.2229 26.9375 13.3127 26.9375ZM29.5498 26.9375C28.6397 26.9375 27.9017 26.1995 27.9017 25.2908C27.9017 24.3806 28.6397 23.6441 29.5498 23.6441C30.46 23.6441 31.1965 24.382 31.1965 25.2908C31.198 26.1995 30.46 26.9375 29.5498 26.9375Z" />
<path d="M13.3127 24.3701C12.8045 24.3701 12.3939 24.7821 12.3939 25.2889C12.3939 25.7971 12.8059 26.2077 13.3127 26.2077C13.8209 26.2077 14.2315 25.7957 14.2315 25.2889C14.2315 24.7821 13.8195 24.3701 13.3127 24.3701Z" />
<path d="M29.5499 24.3701C29.0417 24.3701 28.6311 24.7821 28.6311 25.2889C28.6311 25.7971 29.0431 26.2077 29.5499 26.2077C30.0567 26.2077 30.4687 25.7957 30.4687 25.2889C30.4687 24.7821 30.0581 24.3701 29.5499 24.3701Z" />
<path d="M34.2115 8.19336C32.8519 8.19336 31.7479 9.29594 31.7479 10.6569C31.7479 12.0165 32.8505 13.1205 34.2115 13.1205C35.5725 13.1205 36.6751 12.0179 36.6751 10.6569C36.6736 9.29594 35.571 8.19336 34.2115 8.19336Z" />
<path d="M38.4896 0H4.31267C1.92089 0 0 1.57203 0 3.53025V24.0944C0 26.0526 1.92089 27.8515 4.31267 27.8515H7.96782C7.94342 27.2772 7.98649 27.1078 8.0999 26.7848L9.26995 23.4785C9.79827 21.9768 11.7091 20.8168 13.6185 20.8168H29.1838C31.0932 20.8168 33.004 21.9237 33.5323 23.4254L34.7024 26.8193C34.8158 27.1423 34.8589 27.2772 34.8345 27.8515H38.491C40.8828 27.8515 42.7836 26.0526 42.7836 24.0944V3.53025C42.7822 1.57203 40.8814 0 38.4896 0ZM2.99332 1.68688C3.71975 1.68688 4.30837 2.2755 4.30837 3.00193C4.30837 3.72837 3.71975 4.31698 2.99332 4.31698C2.26688 4.31698 1.67827 3.72837 1.67827 3.00193C1.67827 2.2755 2.26688 1.68688 2.99332 1.68688ZM2.99332 25.9665C2.26688 25.9665 1.67827 25.3779 1.67827 24.6514C1.67827 23.925 2.26688 23.3364 2.99332 23.3364C3.71975 23.3364 4.30837 23.925 4.30837 24.6514C4.30837 25.3779 3.71975 25.9665 2.99332 25.9665ZM8.59089 16.82C5.18698 16.82 2.42767 14.0607 2.42767 10.6568C2.42767 7.25287 5.18698 4.49356 8.59089 4.49356C11.9948 4.49356 14.7541 7.25287 14.7541 10.6568C14.7541 14.0607 11.9948 16.82 8.59089 16.82ZM25.8301 13.0644H16.9205C17.1244 12.203 17.2363 11.4995 17.2363 10.6955C17.2363 9.89158 17.1244 9.18812 16.9205 8.32673H25.8301C25.6262 9.18812 25.5143 9.89158 25.5143 10.6955C25.5143 11.4995 25.6262 12.203 25.8301 13.0644ZM34.2114 16.82C30.8075 16.82 28.0482 14.0607 28.0482 10.6568C28.0482 7.25287 30.8075 4.49356 34.2114 4.49356C37.6153 4.49356 40.3746 7.25287 40.3746 10.6568C40.3746 14.0607 37.6153 16.82 34.2114 16.82ZM39.8004 25.9665C39.0739 25.9665 38.4853 25.3779 38.4853 24.6514C38.4853 23.925 39.0739 23.3364 39.8004 23.3364C40.5268 23.3364 41.1154 23.925 41.1154 24.6514C41.1154 25.3779 40.5268 25.9665 39.8004 25.9665ZM39.8004 4.31554C39.0739 4.31554 38.4853 3.72693 38.4853 3.00049C38.4853 2.27406 39.0739 1.68545 39.8004 1.68545C40.5268 1.68545 41.1154 2.27406 41.1154 3.00049C41.1154 3.72693 40.5268 4.31554 39.8004 4.31554Z" />
<path d="M8.59094 8.19336C7.22995 8.19336 6.12738 9.29594 6.12738 10.6569C6.12738 12.0165 7.22995 13.1205 8.59094 13.1205C9.9505 13.1191 11.0545 12.0165 11.0545 10.6569C11.0545 9.29594 9.9505 8.19336 8.59094 8.19336Z" />
</g>
</svg>
