<svg width="35" height="29" viewBox="0 0 35 29" fill="none" xmlns="http://www.w3.org/2000/svg">
<path d="M15.8016 2.9873H10.2321C9.72285 2.9873 9.3089 3.48516 9.3089 4.04524C9.3089 4.60533 9.72285 5.10318 10.2321 5.10318H15.8016C16.3109 5.10318 16.7249 4.60533 16.7249 4.04524C16.7249 3.48516 16.3109 2.9873 15.8016 2.9873Z" fill="#66CCCC"/>
<path d="M15.8016 12.0732H10.2321C9.72285 12.0732 9.3089 12.5089 9.3089 13.069C9.3089 13.629 9.72285 14.0647 10.2321 14.0647H15.8016C16.3109 14.0647 16.7249 13.629 16.7249 13.069C16.7249 12.5089 16.3109 12.0732 15.8016 12.0732Z" fill="#66CCCC"/>
<path d="M15.8016 6.34766H10.2321C9.72285 6.34766 9.3089 6.78328 9.3089 7.34336C9.3089 7.90345 9.72285 8.33907 10.2321 8.33907H15.8016C16.3109 8.33907 16.7249 7.90345 16.7249 7.34336C16.7249 6.78328 16.3109 6.34766 15.8016 6.34766Z" fill="#66CCCC"/>
<path d="M15.8016 9.20996H10.2321C9.72285 9.20996 9.3089 9.64558 9.3089 10.2057C9.3089 10.7658 9.72285 11.2014 10.2321 11.2014H15.8016C16.3109 11.2014 16.7249 10.7658 16.7249 10.2057C16.7249 9.64558 16.3109 9.20996 15.8016 9.20996Z" fill="#66CCCC"/>
<path d="M1.53923 11.2014H7.10748C7.61677 11.2014 8.03072 10.7658 8.03072 10.2057C8.03072 9.64558 7.61677 9.20996 7.10748 9.20996H1.53923C1.02995 9.20996 0.615997 9.64558 0.615997 10.2057C0.615997 10.7658 1.02869 11.2014 1.53923 11.2014Z" fill="#66CCCC"/>
<path d="M0.615997 7.34336C0.615997 7.90345 1.02869 8.33907 1.53923 8.33907H7.10748C7.61677 8.33907 8.03072 7.90345 8.03072 7.34336C8.03072 6.78328 7.61677 6.34766 7.10748 6.34766H1.53923C1.02869 6.34766 0.615997 6.78328 0.615997 7.34336Z" fill="#66CCCC"/>
<path d="M1.53923 14.0647H7.10748C7.61677 14.0647 8.03072 13.629 8.03072 13.069C8.03072 12.5089 7.61677 12.0732 7.10748 12.0732H1.53923C1.02995 12.0732 0.615997 12.5089 0.615997 13.069C0.615997 13.629 1.02869 14.0647 1.53923 14.0647Z" fill="#66CCCC"/>
<path d="M17.9391 4.04524C17.9391 4.60533 18.353 5.10318 18.8623 5.10318H24.4305C24.9398 5.10318 25.3538 4.60533 25.3538 4.04524C25.3538 3.48516 24.9398 2.9873 24.4305 2.9873H18.8623C18.353 2.9873 17.9391 3.48516 17.9391 4.04524Z" fill="#66CCCC"/>
<path d="M13.2314 20.9102H13.673V26.3866H14.8019V20.9102H15.5834C16.0061 20.9102 16.3473 20.5207 16.3473 20.1012C16.3473 19.6818 16.0049 19.2922 15.5834 19.2922H14.8019V17.3008H13.673V19.2922H13.2314C12.8087 19.2922 12.4662 19.6818 12.4662 20.1012C12.4662 20.5207 12.8087 20.9102 13.2314 20.9102Z" fill="#66CCCC"/>
<path d="M6.96441 26.7131C9.58233 26.7131 11.7035 24.6071 11.7035 22.0108C11.7035 19.4133 9.58107 17.3086 6.96441 17.3086C4.34649 17.3086 2.22531 19.4145 2.22531 22.0108C2.22531 24.6071 4.34774 26.7131 6.96441 26.7131ZM10.4692 22.1552H10.7891C10.7891 24.1466 8.91875 25.8767 6.81012 25.8767C6.80761 25.8767 6.6483 25.8045 6.6483 25.8045V25.4871C6.6483 25.4871 6.80761 25.5593 6.81012 25.5593C8.74314 25.5605 10.4692 24.0222 10.4692 22.1552ZM9.29883 22.1552H9.6187C9.6187 23.5243 8.27399 24.7154 6.81012 24.7154C6.80761 24.7154 6.6483 24.6432 6.6483 24.642V24.3246C6.6483 24.3246 6.80761 24.3968 6.81012 24.3968C8.09712 24.3993 9.29883 23.2754 9.29883 22.1552ZM6.96441 20.6903C7.69948 20.6903 8.29532 21.2815 8.29532 22.0108C8.29532 22.7402 7.69948 23.3314 6.96441 23.3314C6.22933 23.3314 5.6335 22.7402 5.6335 22.0108C5.6335 21.2802 6.23059 20.6903 6.96441 20.6903Z" fill="#66CCCC"/>
<path d="M34.3704 15.0605H0V29.0005H34.3704V15.0605ZM33.3669 28.0047H1.00351V16.0563H33.3669V28.0047Z" fill="#66CCCC"/>
<path d="M27.6129 26.7131C30.2308 26.7131 32.352 24.6071 32.352 22.0108C32.352 19.4133 30.2295 17.3086 27.6129 17.3086C24.995 17.3086 22.8738 19.4145 22.8738 22.0108C22.8725 24.6071 24.995 26.7131 27.6129 26.7131ZM31.1177 22.1552H31.4375C31.4375 24.1466 29.7178 25.8767 27.6091 25.8767C27.6066 25.8767 27.5978 25.8045 27.5978 25.8045V25.573C29.6036 25.5692 31.1177 24.0222 31.1177 22.1552ZM29.9461 22.1552H30.2659C30.2659 23.5243 29.0705 24.7154 27.6079 24.7154C27.6054 24.7154 27.5966 24.6432 27.5966 24.642V24.4105C28.851 24.408 29.9461 23.2754 29.9461 22.1552ZM27.6129 20.6903C28.348 20.6903 28.9438 21.2815 28.9438 22.0108C28.9438 22.7402 28.348 23.3314 27.6129 23.3314C26.8778 23.3314 26.282 22.7402 26.282 22.0108C26.282 21.2802 26.8778 20.6903 27.6129 20.6903Z" fill="#66CCCC"/>
<path d="M9.3089 0.93721C9.3089 1.4973 9.72285 1.99142 10.2321 1.99142H15.8016C16.3109 1.99142 16.7249 1.4973 16.7249 0.93721C16.7249 0.377124 16.3109 0 15.8016 0H10.2321C9.72285 0 9.3089 0.377124 9.3089 0.93721Z" fill="#66CCCC"/>
<path d="M18.994 22.0304H19.443V26.3866H20.6974V22.0304H21.3472C21.7699 22.0304 22.1124 21.7031 22.1124 21.2836C22.1124 20.8642 21.7699 20.5368 21.3472 20.5368H20.6974V17.3008H19.443V20.5368H18.994C18.5712 20.5368 18.23 20.8642 18.23 21.2836C18.23 21.7031 18.5725 22.0304 18.994 22.0304Z" fill="#66CCCC"/>
<path d="M15.3474 23.8351C15.3474 24.2546 15.6899 24.6441 16.1113 24.6441H16.6833V26.3866H17.6869V24.6441H18.4646C18.8873 24.6441 19.2285 24.2546 19.2285 23.8351C19.2285 23.4157 18.8861 23.0261 18.4646 23.0261H17.6869V17.3008H16.6833V23.0261H16.1126C15.6899 23.0261 15.3474 23.4157 15.3474 23.8351Z" fill="#66CCCC"/>
<path d="M24.4318 9.20996H18.8635C18.353 9.20996 17.9403 9.64558 17.9403 10.2057C17.9403 10.7658 18.3543 11.2014 18.8635 11.2014H24.4318C24.9411 11.2014 25.355 10.7658 25.355 10.2057C25.355 9.64558 24.9411 9.20996 24.4318 9.20996Z" fill="#66CCCC"/>
<path d="M24.4318 12.0732H18.8635C18.353 12.0732 17.9403 12.5089 17.9403 13.069C17.9403 13.629 18.3543 14.0647 18.8635 14.0647H24.4318C24.9411 14.0647 25.355 13.629 25.355 13.069C25.355 12.5089 24.9411 12.0732 24.4318 12.0732Z" fill="#66CCCC"/>
<path d="M33.0607 12.0732H27.4925C26.9832 12.0732 26.5692 12.5089 26.5692 13.069C26.5692 13.629 26.9832 14.0647 27.4925 14.0647H33.0607C33.57 14.0647 33.984 13.629 33.984 13.069C33.984 12.5089 33.5713 12.0732 33.0607 12.0732Z" fill="#66CCCC"/>
<path d="M24.4318 6.34766H18.8635C18.353 6.34766 17.9403 6.78328 17.9403 7.34336C17.9403 7.90345 18.3543 8.33907 18.8635 8.33907H24.4318C24.9411 8.33907 25.355 7.90345 25.355 7.34336C25.355 6.78328 24.9411 6.34766 24.4318 6.34766Z" fill="#66CCCC"/>
<path d="M26.5692 10.2057C26.5692 10.7658 26.9832 11.2014 27.4925 11.2014H33.0607C33.57 11.2014 33.984 10.7658 33.984 10.2057C33.984 9.64558 33.57 9.20996 33.0607 9.20996H27.4925C26.9832 9.20996 26.5692 9.64558 26.5692 10.2057Z" fill="#66CCCC"/>
</svg>
