<svg width="31" height="29" viewBox="0 0 31 29" fill="none" xmlns="http://www.w3.org/2000/svg">
<g clip-path="url(#clip0)">
<path d="M9.17235 1.44821L8.05048 8.43429C10.1329 9.03065 12.6951 9.54564 15.2986 9.54564C17.9075 9.54564 20.4771 9.01567 22.5637 8.41716L21.4387 1.44821C20.9281 -2.04643 18.6982 1.88183 15.3177 1.88183H15.2933C11.9118 1.88183 9.6627 -1.98541 9.17235 1.44821Z" fill="#66CCCC"/>
<path d="M30.6111 10.2024C30.6111 8.49148 27.8208 9.03431 23.606 9.65208L24.1038 12.7591C24.1643 13.136 23.9637 13.5075 23.6166 13.6606C23.4543 13.7324 19.5919 15.4187 15.3252 15.4187C11.0627 15.4187 7.16322 13.757 6.99871 13.6863C6.64845 13.5343 6.44467 13.1649 6.50517 12.7848L7.00613 9.65315C2.79142 9.03431 0 8.49041 0 10.2024C0 12.8844 6.85224 18.4122 15.3061 18.4122C23.7589 18.4122 30.6111 12.8844 30.6111 10.2024Z" fill="#66CCCC"/>
<path d="M23.2505 24.4613C23.2505 25.244 20.6693 27.5909 18.8968 25.9142C17.5457 24.6358 15.9759 24.9163 15.3051 25.123C14.6322 24.9174 13.056 24.6369 11.7049 25.9142C9.93241 27.5909 7.35539 25.2429 7.35539 24.4613C7.35539 23.6883 6.19425 30.9431 15.3062 28.4934C24.417 30.9431 23.2505 23.6883 23.2505 24.4613Z" fill="#66CCCC"/>
<path d="M8.38806 9.98698C8.38806 10.4142 8.73089 10.7611 9.15544 10.7611C9.57892 10.7611 9.92281 10.4152 9.92281 9.98698C9.92281 9.55979 9.57999 9.21289 9.15544 9.21289C8.73195 9.21289 8.38806 9.55979 8.38806 9.98698Z" fill="#66CCCC"/>
<path d="M20.5216 9.98698C20.5216 10.4142 20.8655 10.7611 21.289 10.7611C21.7125 10.7611 22.0564 10.4152 22.0564 9.98698C22.0564 9.55979 21.7125 9.21289 21.289 9.21289C20.8655 9.21289 20.5216 9.55979 20.5216 9.98698Z" fill="#66CCCC"/>
<path d="M11.4214 10.6579C11.4214 11.0851 11.7653 11.4309 12.1888 11.4309C12.6122 11.4309 12.9561 11.084 12.9561 10.6579C12.9561 10.2307 12.6122 9.88379 12.1888 9.88379C11.7653 9.88379 11.4214 10.2307 11.4214 10.6579Z" fill="#66CCCC"/>
<path d="M14.5377 10.8258C14.5377 11.253 14.8815 11.5999 15.305 11.5999C15.7285 11.5999 16.0724 11.253 16.0724 10.8258C16.0724 10.3987 15.7285 10.0518 15.305 10.0518C14.8815 10.0518 14.5377 10.3987 14.5377 10.8258Z" fill="#66CCCC"/>
<path d="M17.4883 10.6579C17.4883 11.0851 17.8322 11.4309 18.2557 11.4309C18.6791 11.4309 19.023 11.084 19.023 10.6579C19.023 10.2307 18.6791 9.88379 18.2557 9.88379C17.8322 9.88379 17.4883 10.2307 17.4883 10.6579Z" fill="#66CCCC"/>
<path d="M7.32666 12.9334C7.32666 12.9334 11.1848 14.5887 15.3252 14.5887C19.4656 14.5887 23.2823 12.8906 23.2823 12.8906L22.9501 10.8242C20.8082 11.4655 18.0869 12.0523 15.2976 12.0523C12.5136 12.0523 9.80072 11.4677 7.66312 10.8285L7.32666 12.9334Z" fill="#66CCCC"/>
</g>
<defs>
<clipPath id="clip0">
<rect width="30.6111" height="29" fill="white"/>
</clipPath>
</defs>
</svg>
