<svg width="15" height="41" viewBox="0 0 15 41" fill="none" xmlns="http://www.w3.org/2000/svg">
<g clip-path="url(#clip0)">
<path d="M6.19481 13.1906L6.15088 14.6816L8.98035 14.6816L8.93642 13.1906L6.19481 13.1906Z" fill="#66CCCC"/>
<path d="M6.30687 8.94643L6.26294 10.4375L8.86938 10.4375L8.82545 8.94643L6.30687 8.94643Z" fill="#66CCCC"/>
<path d="M6.25059 11.011L6.20667 12.7314L8.92575 12.7314L8.88182 11.011L6.25059 11.011Z" fill="#66CCCC"/>
<path d="M6.13896 15.1407L6.10742 16.4023L9.02475 16.4023L8.99321 15.1407L6.13896 15.1407Z" fill="#66CCCC"/>
<path d="M6.00841 20.0723L5.97687 21.334L9.15551 21.334L9.12398 20.0723L6.00841 20.0723Z" fill="#66CCCC"/>
<path d="M6.09493 16.8608L6.06451 18.0078L9.06745 18.0078L9.03704 16.8608L6.09493 16.8608Z" fill="#66CCCC"/>
<path d="M6.05186 18.4663L6.02032 19.6133L9.11111 19.6133L9.07957 18.4663L6.05186 18.4663Z" fill="#66CCCC"/>
<path d="M5.23223 4.24425C4.98105 4.24425 4.92023 4.54132 4.92023 4.77989L4.92023 4.95309C4.92023 5.19281 4.98105 5.27539 5.23223 5.27539L5.7774 5.27539L5.63097 4.24311L5.23223 4.24311L5.23223 4.24425Z" fill="#66CCCC"/>
<path d="M6.24568 29.6905C6.24568 29.3716 5.99112 29.1124 5.67799 29.1124C5.36485 29.1124 5.11029 29.3716 5.11029 29.6905C5.11029 30.0093 5.36485 30.2686 5.67799 30.2686C5.99112 30.2686 6.24568 30.0105 6.24568 29.6905Z" fill="#66CCCC"/>
<path d="M4.83918 0.688419C4.59363 0.688419 4.46973 1.00613 4.46973 1.24471L4.46973 1.4179C4.46973 1.65762 4.59363 1.7207 4.83918 1.7207L5.26833 1.7207L5.1219 0.688419L4.83918 0.688419Z" fill="#66CCCC"/>
<path d="M6.36884 6.53841L6.31927 8.48828L8.81308 8.48828L8.76352 6.53841L6.36884 6.53841Z" fill="#66CCCC"/>
<path d="M5.03511 2.40912C4.78731 2.40912 4.69495 2.71536 4.69495 2.95508L4.69495 3.12828C4.69495 3.368 4.78731 3.44141 5.03511 3.44141L5.52058 3.44141L5.37415 2.40912L5.03511 2.40912Z" fill="#66CCCC"/>
<path d="M9.24735 24.7754L9.21017 23.2843L5.92002 23.2843L5.88397 24.7754L9.24735 24.7754Z" fill="#66CCCC"/>
<path d="M5.96534 21.7929L5.93268 22.8252L9.19918 22.8252L9.16764 21.7929L5.96534 21.7929Z" fill="#66CCCC"/>
<path d="M9.42896 33.3175C9.11583 33.3175 8.86127 33.5767 8.86127 33.8956C8.86127 34.2144 9.11583 34.4736 9.42896 34.4736C9.7421 34.4736 9.99666 34.2144 9.99666 33.8956C9.99779 33.5755 9.74323 33.3175 9.42896 33.3175Z" fill="#66CCCC"/>
<path d="M10.2712 1.7207C10.5168 1.7207 10.777 1.6255 10.777 1.38578L10.777 1.21259C10.777 0.972868 10.5168 0.688419 10.2712 0.688419L10.0099 0.688419L9.86346 1.7207L10.2712 1.7207Z" fill="#3A8BBB"/>
<path d="M8.11183 29.6905C8.11183 29.3716 7.85727 29.1124 7.54414 29.1124C7.231 29.1124 6.97644 29.3716 6.97644 29.6905C6.97644 30.0093 7.231 30.2686 7.54414 30.2686C7.8584 30.2686 8.11183 30.0105 8.11183 29.6905Z" fill="#66CCCC"/>
<path d="M5.43738 0.49489L6.17178 5.69301C6.17178 5.85015 6.29681 5.96484 6.45112 5.96484L8.68135 5.96484C8.83566 5.96484 8.96069 5.87882 8.96069 5.72168L9.69509 0.453597C9.69509 0.213878 9.50473 -0.000606715 9.26932 -0.000606704L5.86315 -0.000606555C5.62886 0.000540248 5.43738 0.255171 5.43738 0.49489ZM8.7861 4.86259C8.7861 5.1264 8.57547 5.34089 8.3164 5.34089C8.05734 5.34089 7.8467 5.1264 7.8467 4.86259C7.8467 4.59879 8.05734 4.3843 8.3164 4.3843C8.57547 4.3843 8.7861 4.59764 8.7861 4.86259ZM7.2531 4.86259C7.2531 5.1264 7.04247 5.34089 6.7834 5.34089C6.52433 5.34089 6.3137 5.1264 6.3137 4.86259C6.3137 4.59879 6.52433 4.3843 6.7834 4.3843C7.04247 4.3843 7.2531 4.59764 7.2531 4.86259ZM8.99899 3.02054C8.99899 3.28435 8.78836 3.49883 8.52929 3.49883C8.27022 3.49883 8.05959 3.28435 8.05959 3.02054C8.05959 2.75559 8.27022 2.54225 8.52929 2.54225C8.78836 2.54225 8.99899 2.75559 8.99899 3.02054ZM7.04022 3.02054C7.04022 3.28435 6.82958 3.49883 6.57052 3.49883C6.31145 3.49883 6.10082 3.28435 6.10082 3.02054C6.10082 2.75559 6.31145 2.54225 6.57052 2.54225C6.83071 2.54111 7.04022 2.75559 7.04022 3.02054ZM9.21187 1.24272C9.21188 1.50653 9.00124 1.72101 8.74218 1.72101C8.48311 1.72101 8.27248 1.50653 8.27248 1.24272C8.27248 0.978915 8.48311 0.764431 8.74218 0.764431C9.00124 0.764431 9.21187 0.978915 9.21187 1.24272ZM6.82733 1.24272C6.82733 1.50653 6.6167 1.72101 6.35763 1.72101C6.09856 1.72101 5.88793 1.50653 5.88793 1.24272C5.88793 0.978915 6.09856 0.764431 6.35763 0.764431C6.61782 0.764431 6.82733 0.978915 6.82733 1.24272Z" fill="#66CCCC"/>
<path d="M6.26357 33.8956C6.26357 33.5767 6.009 33.3175 5.69587 33.3175C5.38274 33.3175 5.12817 33.5767 5.12817 33.8956C5.12817 34.2144 5.38274 34.4736 5.69587 34.4736C6.01013 34.4736 6.26357 34.2144 6.26357 33.8956Z" fill="#66CCCC"/>
<path d="M10.0754 3.44141C10.3232 3.44141 10.5519 3.36685 10.5519 3.12828L10.5519 2.95508C10.5519 2.71536 10.3232 2.40912 10.0754 2.40912L9.75776 2.40912L9.61133 3.44141L10.0754 3.44141Z" fill="#3A8BBB"/>
<path d="M8.13051 33.8956C8.13051 33.5767 7.87595 33.3175 7.56281 33.3175C7.24968 33.3175 6.99512 33.5767 6.99512 33.8956C6.99512 34.2144 7.24968 34.4736 7.56281 34.4736C7.87707 34.4736 8.13051 34.2144 8.13051 33.8956Z" fill="#66CCCC"/>
<path d="M9.97878 29.6905C9.97878 29.3716 9.72421 29.1124 9.41108 29.1124C9.09795 29.1124 8.84338 29.3716 8.84338 29.6905C8.84338 30.0093 9.09795 30.2686 9.41108 30.2686C9.72534 30.2686 9.97878 30.0105 9.97878 29.6905Z" fill="#66CCCC"/>
<path d="M10.3268 4.79693C10.3268 4.55721 10.1297 4.24408 9.8785 4.24408L9.50117 4.24408L9.35474 5.27637L9.8785 5.27637C10.1297 5.27637 10.3268 5.20984 10.3268 4.97012L10.3268 4.79693Z" fill="#3A8BBB"/>
<path d="M13.0303 6.65323L12.9278 6.65323C12.965 6.68191 12.9999 6.71173 13.0303 6.73926L13.0303 6.65323Z" fill="#3A8BBB"/>
<path d="M13.2134 29.2602C12.9611 28.3048 14.4366 29.2121 14.3206 26.9628C14.0232 21.2187 13.6628 23.4118 12.586 25.458C11.4371 27.7634 10.2769 25.2997 9.63261 23.406L9.67203 24.8994C9.67541 25.0164 9.63148 25.0737 9.55151 25.1575C9.47153 25.2412 9.36115 25.232 9.24626 25.232L5.88401 25.232C5.76912 25.232 5.65874 25.2412 5.57876 25.1575C5.49879 25.0737 5.45486 24.9889 5.45824 24.8719L5.54497 21.6534C4.14038 21.7257 -1.24259 22.6307 1.5835 27.698C2.74479 29.781 2.16809 30.2271 1.3233 31.951C0.478517 33.675 -2.08287 36.422 3.50397 39.9077C10.0257 42.9862 13.8622 38.7836 14.6641 36.7443C15.8671 33.6807 13.4657 30.2168 13.2134 29.2602ZM5.90316 30.5093C5.23635 30.5093 4.69456 30.1124 4.69456 29.6227L4.69456 29.5596C4.69456 29.0698 5.23522 28.673 5.90316 28.673L9.23162 28.673C9.89843 28.673 10.4402 29.0698 10.4402 29.5596L10.4402 29.6227C10.4402 30.1124 9.89956 30.5093 9.23162 30.5093L5.90316 30.5093ZM5.90316 34.6384C5.23635 34.6384 4.69456 34.2416 4.69456 33.7518L4.69456 33.6887C4.69456 33.199 5.23522 32.8021 5.90316 32.8021L9.23162 32.8021C9.89843 32.8021 10.4402 33.199 10.4402 33.6887L10.4402 33.7518C10.4402 34.2416 9.89956 34.6384 9.23162 34.6384L5.90316 34.6384ZM10.8896 37.2765L10.8896 38.3088L4.24401 38.3088L4.24401 37.2765L10.8896 37.2765Z" fill="#66CCCC"/>
</g>
<defs>
<clipPath id="clip0">
<rect width="41" height="15" fill="white" transform="translate(0 41) rotate(-90)"/>
</clipPath>
</defs>
</svg>
