<svg width="79" height="79" viewBox="0 0 79 79" fill="none" xmlns="http://www.w3.org/2000/svg">
<path d="M40.7097 15.7871C23.2824 15.7871 9.10352 29.966 9.10352 47.3933C9.10352 64.8206 23.2824 78.9995 40.7097 78.9995C58.137 78.9995 72.3159 64.8206 72.3159 47.3933C72.3159 29.966 58.137 15.7871 40.7097 15.7871ZM40.7097 74.3706C25.8355 74.3706 13.7324 62.2696 13.7324 47.3933C13.7324 32.517 25.8334 20.416 40.7097 20.416C55.586 20.416 67.687 32.517 67.687 47.3933C67.687 62.2696 55.5839 74.3706 40.7097 74.3706Z" fill="#66CCCC"/>
<path d="M54.5121 53.2717C53.541 52.4385 52.0804 52.5517 51.2492 53.5207C48.6056 56.6025 44.7646 58.3697 40.7097 58.3697C36.6548 58.3697 32.8138 56.6025 30.1702 53.5207C29.337 52.5496 27.8763 52.4385 26.9073 53.2717C25.9363 54.1049 25.8252 55.5656 26.6584 56.5346C30.1825 60.641 35.3031 62.9986 40.7097 62.9986C46.1183 62.9986 51.2389 60.643 54.7631 56.5346C55.5942 55.5656 55.4831 54.1029 54.5121 53.2717Z" fill="#66CCCC"/>
<path d="M27.862 43.7547C29.1395 43.7547 30.1764 42.7198 30.1764 41.4402C30.1764 40.6975 30.7792 40.0947 31.5219 40.0947C32.2646 40.0947 32.8674 40.6996 32.8674 41.4402C32.8674 42.7198 33.9042 43.7547 35.1818 43.7547C36.4594 43.7547 37.4963 42.7198 37.4963 41.4402C37.4963 38.1465 34.8156 35.4658 31.5219 35.4658C28.2282 35.4658 25.5475 38.1465 25.5475 41.4402C25.5475 42.7178 26.5823 43.7547 27.862 43.7547Z" fill="#66CCCC"/>
<path d="M49.8976 35.4658C46.6038 35.4658 43.9232 38.1465 43.9232 41.4402C43.9232 42.7198 44.9601 43.7547 46.2376 43.7547C47.5152 43.7547 48.5521 42.7198 48.5521 41.4402C48.5521 40.6975 49.1569 40.0947 49.8976 40.0947C50.6382 40.0947 51.243 40.6975 51.243 41.4402C51.243 42.7198 52.2799 43.7547 53.5575 43.7547C54.8351 43.7547 55.8719 42.7198 55.8719 41.4402C55.874 38.1444 53.1913 35.4658 49.8976 35.4658Z" fill="#66CCCC"/>
<path d="M59.7787 13.002H63.1547C64.4323 13.002 65.4691 11.9651 65.4691 10.6875C65.4691 9.40992 64.4323 8.37305 63.1547 8.37305H59.7787C58.5011 8.37305 57.4642 9.40992 57.4642 10.6875C57.4642 11.9651 58.499 13.002 59.7787 13.002Z" fill="#66CCCC"/>
<path d="M68.2322 21.3731C69.5098 21.3731 70.5467 20.3362 70.5467 19.0586V15.6826C70.5467 14.405 69.5098 13.3682 68.2322 13.3682C66.9546 13.3682 65.9178 14.405 65.9178 15.6826V19.0586C65.9178 20.3383 66.9526 21.3731 68.2322 21.3731Z" fill="#66CCCC"/>
<path d="M76.6855 8.37305H73.3094C72.0319 8.37305 70.995 9.40992 70.995 10.6875C70.995 11.9651 72.0319 13.002 73.3094 13.002H76.6855C77.963 13.002 78.9999 11.9651 78.9999 10.6875C78.9999 9.40787 77.963 8.37305 76.6855 8.37305Z" fill="#66CCCC"/>
<path d="M68.2322 8.00492C69.5098 8.00492 70.5467 6.96805 70.5467 5.69047V2.31445C70.5467 1.03688 69.5098 0 68.2322 0C66.9546 0 65.9178 1.03688 65.9178 2.31445V5.69047C65.9178 6.9701 66.9526 8.00492 68.2322 8.00492Z" fill="#66CCCC"/>
<path d="M5.00951 11.459H2.31445C1.03482 11.459 0 12.4938 0 13.7734C0 15.051 1.03482 16.0879 2.31445 16.0879H5.00951C6.28708 16.0879 7.32396 15.051 7.32396 13.7734C7.32396 12.4938 6.28914 11.459 5.00951 11.459Z" fill="#66CCCC"/>
<path d="M12.1483 21.2273V18.5322C12.1483 17.2546 11.1134 16.2178 9.8338 16.2178C8.55622 16.2178 7.51935 17.2546 7.51935 18.5322V21.2273C7.51935 22.5048 8.55622 23.5417 9.8338 23.5417C11.1134 23.5417 12.1483 22.5069 12.1483 21.2273Z" fill="#66CCCC"/>
<path d="M14.6603 16.0879H17.3553C18.6329 16.0879 19.6698 15.051 19.6698 13.7734C19.6698 12.4959 18.6329 11.459 17.3553 11.459H14.6603C13.3827 11.459 12.3458 12.4959 12.3458 13.7734C12.3458 15.051 13.3827 16.0879 14.6603 16.0879Z" fill="#66CCCC"/>
<path d="M9.8338 11.3279C11.1134 11.3279 12.1483 10.291 12.1483 9.01341V6.31836C12.1483 5.04078 11.1134 4.00391 9.8338 4.00391C8.55622 4.00391 7.51935 5.04078 7.51935 6.31836V9.01341C7.51935 10.291 8.55622 11.3279 9.8338 11.3279Z" fill="#66CCCC"/>
</svg>
