<svg width="36" height="30" viewBox="0 0 36 30" fill="#FFFFFF" xmlns="http://www.w3.org/2000/svg">
<g clip-path="url(#clip0)">
<path d="M14.8634 6.33397C14.6488 4.80614 13.9358 3.32222 12.7401 2.14782C9.82663 -0.712462 5.09944 -0.717949 2.18601 2.14343C-0.726296 5.00481 -0.729648 9.63986 2.18378 12.5012C3.40413 13.6998 4.96198 14.4132 6.55112 14.6064L20.6209 26.7818L27.3128 20.2095L14.8634 6.33397ZM14.109 6.32519L13.6888 6.73788L12.2662 5.34066L13.3826 4.24419C13.7056 4.85993 13.9414 5.55798 14.109 6.32519ZM12.2338 2.73392C12.4752 2.9699 12.6898 3.21795 12.892 3.48466L11.6348 4.71944L10.2122 3.32332L11.4694 2.08855C11.7421 2.28611 11.9935 2.49794 12.2338 2.73392ZM4.83905 7.3591L3.41642 8.75632L1.9938 7.3591L3.41642 5.96189L4.83905 7.3591ZM4.04895 5.34066L5.47158 3.94345L6.89421 5.34066L5.47046 6.73788L4.04895 5.34066ZM5.47046 7.98033L6.89309 9.37754L5.47046 10.7737L4.04895 9.37645L5.47046 7.98033ZM6.10299 7.3591L7.52562 5.96189L8.94824 7.3591L7.52562 8.75632L6.10299 7.3591ZM8.15703 5.34066L9.57965 3.94345L11.0023 5.34066L9.57965 6.73788L8.15703 5.34066ZM8.57834 0.892193C9.28015 0.978901 9.99203 1.21159 10.6972 1.60562L9.58077 2.70209L8.15703 1.30488L8.57834 0.892193ZM7.52562 1.92611L8.94824 3.32332L7.52562 4.72053L6.10299 3.32332L7.52562 1.92611ZM6.38908 0.809875L6.89309 1.30488L5.47046 2.70209L4.27805 1.53098C4.90275 1.21268 5.61127 0.977803 6.38908 0.809875ZM2.76602 2.64612C2.99958 2.41672 3.23873 2.21697 3.50806 2.01721L4.83793 3.32332L3.41642 4.72053L2.09214 3.41881C2.29218 3.1499 2.51904 2.88978 2.76602 2.64612ZM1.60266 4.18162L2.7839 5.34176L1.36127 6.73788L0.885196 6.27031C0.971247 5.57774 1.20481 4.87639 1.60266 4.18162ZM0.912017 8.42046L1.36127 7.97923L2.7839 9.37645L1.63842 10.5015C1.23722 9.80889 1.00142 9.10973 0.912017 8.42046ZM2.78725 12.0117C2.54698 11.7757 2.33129 11.5277 2.12902 11.261L3.41531 9.99767L4.83793 11.3949L3.55165 12.6582C3.28008 12.4595 3.02864 12.2488 2.78725 12.0117ZM6.44384 13.8535C5.66379 13.6888 4.95192 13.4561 4.32498 13.14L5.47046 12.015L6.89309 13.4122L6.44384 13.8535ZM7.52562 12.7921L6.10299 11.3949L7.52562 9.99767L8.94824 11.3949L7.52562 12.7921ZM9.57965 10.7737L8.15703 9.37645L9.57965 7.97923L11.0023 9.37645L9.57965 10.7737ZM10.2122 7.3591L11.6348 5.96189L13.0574 7.3591L11.6348 8.75632L10.2122 7.3591ZM20.175 19.3051L19.6889 19.7826C18.8195 20.6365 17.4091 20.6365 16.5397 19.7826L12.4976 15.8126C11.6281 14.9587 11.6281 13.5736 12.4976 12.7197L12.9837 12.2422C13.8531 11.3883 15.2635 11.3883 16.1329 12.2422L20.175 16.2121C21.0445 17.0661 21.0445 18.4512 20.175 19.3051Z" />
<path d="M30.6475 13.8315C29.4584 12.668 28.2101 11.5639 26.9708 10.452C26.0544 9.62993 25.1011 8.81334 24.3099 7.87162C23.9903 7.49076 23.4416 8.03516 23.759 8.41272C24.6854 9.51469 25.8197 10.4553 26.8914 11.4157C28.3286 12.702 29.7613 13.995 31.1001 15.3812C32.3696 16.6972 33.5844 18.1175 34.4102 19.7507C35.0595 21.0337 35.3747 22.5396 34.6818 23.8688C34.4214 24.3682 34.0292 24.7853 33.6548 25.2023C33.1195 25.8005 32.5484 26.368 31.9327 26.8871C31.3649 27.3657 30.7391 27.8486 29.9993 28.0132C29.3266 28.1636 28.865 27.8464 28.4638 27.4633L29.673 26.2758L27.5776 23.3661L28.9835 21.9853C29.3254 21.6495 29.3288 21.0118 28.9868 20.6759L28.9656 20.6551C28.6236 20.3192 28.0615 20.4081 27.7195 20.744L21.164 27.1824C20.8221 27.5182 20.8008 28.0033 21.1417 28.3392L21.1629 28.3601C21.5049 28.6959 22.086 28.7596 22.428 28.4237L23.8338 27.043L26.7964 29.1009L27.9151 28.0023C28.1554 28.2316 28.3688 28.4116 28.6516 28.5818C29.169 28.8924 29.73 28.8408 30.2955 28.7146C31.413 28.4654 32.383 27.5709 33.181 26.8158C34.4494 25.6161 35.7412 24.2738 35.8575 22.4661C35.9569 20.9229 35.1992 19.4082 34.3711 18.1471C33.3329 16.5589 32.0042 15.1573 30.6475 13.8315Z" />
<path d="M17.9018 15.3768C17.4962 14.9784 16.7385 15.0739 16.2121 15.5919L15.9093 15.8894C15.3818 16.4074 15.2834 17.1505 15.6902 17.5489L17.5386 19.3643C17.9443 19.7638 18.702 19.6672 19.2284 19.1492L19.5312 18.8517C20.0587 18.3337 20.157 17.5906 19.7502 17.1922L17.9018 15.3768Z" />
</g>
</svg>
