<?xml version="1.0"?>
<svg xmlns="http://www.w3.org/2000/svg" xmlns:xlink="http://www.w3.org/1999/xlink" xmlns:svgjs="http://svgjs.com/svgjs" version="1.1" width="512" height="512" x="0" y="0" viewBox="0 0 480 480" style="enable-background:new 0 0 512 512" xml:space="preserve" class=""><g>
<g xmlns="http://www.w3.org/2000/svg">
	<g>
		<path d="M326.998,212.07c-0.717-1.271-1.767-2.321-3.038-3.038l-128-72c-3.839-2.187-8.724-0.848-10.911,2.991    c-0.69,1.212-1.052,2.583-1.049,3.977v144c0.009,2.849,1.532,5.479,4,6.904c2.454,1.434,5.484,1.458,7.96,0.064l128-72    C327.808,220.797,329.168,215.918,326.998,212.07z M200,274.32V157.68L303.68,216L200,274.32z" fill="#ffffff" data-original="#000000" style="" class=""/>
	</g>
</g>
<g xmlns="http://www.w3.org/2000/svg">
	<g>
		<polygon points="160,376 160,360 144,360 144,376 32,376 32,392 144,392 144,408 160,408 160,392 448,392 448,376   " fill="#ffffff" data-original="#000000" style="" class=""/>
	</g>
</g>
<g xmlns="http://www.w3.org/2000/svg">
	<g>
		<path d="M240,88c-70.692,0-128,57.308-128,128c0.084,70.658,57.342,127.916,128,128c70.692,0,128-57.308,128-128    S310.692,88,240,88z M240,328c-61.856,0-112-50.144-112-112c0.066-61.828,50.172-111.934,112-112c61.856,0,112,50.144,112,112    S301.856,328,240,328z" fill="#ffffff" data-original="#000000" style="" class=""/>
	</g>
</g>
<g xmlns="http://www.w3.org/2000/svg">
	<g>
		<path d="M456,40H24C10.745,40,0,50.745,0,64v352c0,13.255,10.745,24,24,24h432c13.255,0,24-10.745,24-24V64    C480,50.745,469.255,40,456,40z M464,416c0,4.418-3.582,8-8,8H24c-4.418,0-8-3.582-8-8V64c0-4.418,3.582-8,8-8h432    c4.418,0,8,3.582,8,8V416z" fill="#ffffff" data-original="#000000" style="" class=""/>
	</g>
</g>
<g xmlns="http://www.w3.org/2000/svg">
	<g>
		<rect x="32" y="72" width="16" height="16" fill="#ffffff" data-original="#000000" style="" class=""/>
	</g>
</g>
<g xmlns="http://www.w3.org/2000/svg">
	<g>
		<rect x="64" y="72" width="16" height="16" fill="#ffffff" data-original="#000000" style="" class=""/>
	</g>
</g>
<g xmlns="http://www.w3.org/2000/svg">
	<g>
		<rect x="96" y="72" width="16" height="16" fill="#ffffff" data-original="#000000" style="" class=""/>
	</g>
</g>
<g xmlns="http://www.w3.org/2000/svg">
</g>
<g xmlns="http://www.w3.org/2000/svg">
</g>
<g xmlns="http://www.w3.org/2000/svg">
</g>
<g xmlns="http://www.w3.org/2000/svg">
</g>
<g xmlns="http://www.w3.org/2000/svg">
</g>
<g xmlns="http://www.w3.org/2000/svg">
</g>
<g xmlns="http://www.w3.org/2000/svg">
</g>
<g xmlns="http://www.w3.org/2000/svg">
</g>
<g xmlns="http://www.w3.org/2000/svg">
</g>
<g xmlns="http://www.w3.org/2000/svg">
</g>
<g xmlns="http://www.w3.org/2000/svg">
</g>
<g xmlns="http://www.w3.org/2000/svg">
</g>
<g xmlns="http://www.w3.org/2000/svg">
</g>
<g xmlns="http://www.w3.org/2000/svg">
</g>
<g xmlns="http://www.w3.org/2000/svg">
</g>
</g></svg>
