<svg width="25" height="29" viewBox="0 0 25 29" fill="white" xmlns="http://www.w3.org/2000/svg">
<g clip-path="url(#clip0)">
<path d="M20.0793 28.2882C20.0793 27.8722 19.746 27.5762 19.3354 27.5762H0.743862C0.333282 27.5762 0 27.8722 0 28.2882C0 28.7043 0.333282 29.0003 0.743862 29.0003H19.3354C19.746 29.0003 20.0793 28.7043 20.0793 28.2882Z" />
<path d="M0.743862 19.7434C0.333282 19.7434 0 20.0903 0 20.5063C0 20.9224 0.333282 21.2692 0.743862 21.2692H1.67444V26.6605H18.5393V21.2692H19.3354C19.746 21.2692 20.0793 20.9224 20.0793 20.5063C20.0793 20.0903 19.746 19.7434 19.3354 19.7434H16.9331V17.8107H18.5102C18.7903 17.8107 19.1416 17.6316 19.1416 17.3478V17.298C19.1416 17.0142 18.7903 16.7934 18.5102 16.7934H5.89066V16.4883H2.27676V18.2176H5.89066V17.8107H15.6281V19.7434H0.743862Z" />
<path d="M23.7011 21.1513C23.9983 20.4189 25.9307 15.6451 21.0048 11.0594C16.0788 6.47378 19.254 1.83015 15.857 0.155806C12.4609 -1.51854 3.92303 10.7899 6.02312 13.7062C8.1242 16.6226 16.0377 11.4551 19.8473 15.6003C23.6991 20.8807 19.4428 23.437 19.4428 23.437V24.9882C22.0528 24.4186 23.404 21.8837 23.7011 21.1513ZM13.1485 8.59977C10.8517 11.923 8.16837 14.0338 7.15347 13.3136C6.13856 12.5934 7.17856 9.3159 9.4744 5.99263C11.7712 2.67038 14.4556 0.559643 15.4695 1.27984C16.4844 1.99901 15.4454 5.2765 13.1485 8.59977Z" />
</g>
</svg>
