<svg width="38" height="29" viewBox="0 0 38 29" fill="none" xmlns="http://www.w3.org/2000/svg">
<g clip-path="url(#clip0)">
<path d="M33.8616 6.56348H3.50321C1.6165 6.56348 0 8.14356 0 10.0518V12.2919H37.2857V10.0518C37.2857 8.14356 35.7483 6.56348 33.8616 6.56348ZM12.0353 10.5017H2.94982V8.71162H12.0353V10.5017ZM26.2982 10.8908C25.5502 10.8908 24.9449 10.2774 24.9449 9.52195C24.9449 8.76652 25.5513 8.15311 26.2982 8.15311C27.0451 8.15311 27.6516 8.76652 27.6516 9.52195C27.6516 10.2774 27.0451 10.8908 26.2982 10.8908ZM29.9277 10.8908C29.1796 10.8908 28.5743 10.2774 28.5743 9.52195C28.5743 8.76652 29.1796 8.15311 29.9277 8.15311C30.6758 8.15311 31.2811 8.76652 31.2811 9.52195C31.2822 10.2774 30.6758 10.8908 29.9277 10.8908ZM33.5583 10.8908C32.8114 10.8908 32.2049 10.2774 32.2049 9.52195C32.2049 8.76652 32.8114 8.15311 33.5583 8.15311C34.3064 8.15311 34.9117 8.76652 34.9117 9.52195C34.9117 10.2774 34.3064 10.8908 33.5583 10.8908Z" fill="#66CCCC"/>
<path d="M0 25.6075C0 27.5157 1.6165 29.0003 3.50321 29.0003H33.8616C35.7483 29.0003 37.2857 27.5157 37.2857 25.6075V13.7246H0V25.6075ZM33.9819 17.9016H34.5754C34.9318 18.4983 35.2067 18.9756 35.3825 19.6917H33.9819V17.9016ZM33.9819 20.5271H35.5489C35.5854 20.6464 35.6067 21.0391 35.6067 21.3183C35.6067 21.6286 35.5831 22.0785 35.5371 22.1979H33.9819V20.5271ZM33.9819 23.1526H35.3565C35.1689 23.7493 34.881 24.2267 34.5117 24.8234H33.9819V23.1526ZM25.6044 24.8234H24.972C24.6027 24.2267 24.3148 23.7493 24.1272 23.1526H25.6044V24.8234ZM31.5041 15.6854C31.976 15.874 32.684 16.164 33.156 16.5375V17.3049H31.5041V15.6854ZM31.5041 17.9016H33.156V19.6917H31.5041V17.9016ZM31.5041 20.5271H33.156V22.1979H31.5041V20.5271ZM31.5041 23.1526H33.156V24.8234H31.5041V23.1526ZM31.5041 25.5394H33.156V26.1946C32.684 26.567 31.976 26.857 31.5041 27.0455V25.5394ZM28.9082 15.4933C29.1442 15.4551 29.477 15.4348 29.7554 15.4348C30.0598 15.4348 30.4421 15.4586 30.6781 15.504V17.3049H28.9082V15.4933ZM28.9082 17.9016H30.6781V19.6917H28.9082V17.9016ZM28.9082 20.5271H30.6781V22.1979H28.9082V20.5271ZM28.9082 23.1526H30.6781V24.8234H28.9082V23.1526ZM28.9082 25.5394H30.6781V27.2269C30.4421 27.2723 30.0598 27.2961 29.7554 27.2961C29.477 27.2961 29.1442 27.2747 28.9082 27.2377V25.5394ZM26.4304 16.4814C26.7844 16.1198 27.4923 15.8417 28.0823 15.6627V17.3049H26.4304V16.4814ZM26.4304 17.9016H28.0823V19.6917H26.4304V17.9016ZM26.4304 20.5271H28.0823V22.1979H26.4304V20.5271ZM26.4304 23.1526H28.0823V24.8234H26.4304V23.1526ZM26.4304 25.5394H28.0823V27.0682C27.4923 26.8892 26.7844 26.6111 26.4304 26.2495V25.5394ZM24.9106 17.9016H25.6044V19.6917H24.1036C24.2794 18.9756 24.5531 18.4983 24.9106 17.9016ZM23.936 20.5271H25.6044V22.1979H23.9478C23.9018 22.0785 23.8782 21.6274 23.8782 21.3183C23.8794 21.0391 23.8994 20.6464 23.936 20.5271ZM14.9851 18.3789H22.3006V21.7205H14.9851V18.3789ZM14.9851 22.7946H22.3006V24.346H14.9851V22.7946ZM11.6813 17.9016H12.3774C12.7338 18.4983 13.0087 18.9756 13.1845 19.6917H11.6813V17.9016ZM11.6813 20.5271H13.3509C13.3875 20.6464 13.4087 21.0391 13.4087 21.3183C13.4087 21.6286 13.3851 22.0785 13.3403 22.1979H11.6813V20.5271ZM11.6813 23.1526H13.1597C12.9721 23.7493 12.6842 24.2267 12.3149 24.8234H11.6813V23.1526ZM9.20344 15.6854C9.7934 15.874 10.3834 16.164 10.8553 16.5375V17.3049H9.20344V15.6854ZM9.20344 17.9016H10.8553V19.6917H9.20344V17.9016ZM9.20344 20.5271H10.8553V22.1979H9.20344V20.5271ZM9.20344 23.1526H10.8553V24.8234H9.20344V23.1526ZM9.20344 25.5394H10.8553V26.1946C10.3834 26.567 9.7934 26.857 9.20344 27.0455V25.5394ZM6.84358 15.4933C6.96157 15.4551 7.29431 15.4348 7.57278 15.4348C7.8772 15.4348 8.37749 15.4586 8.37749 15.504V17.3049H6.84358V15.4933ZM6.84358 17.9016H8.37749V19.6917H6.84358V17.9016ZM6.84358 20.5271H8.37749V22.1979H6.84358V20.5271ZM6.84358 23.1526H8.37749V24.8234H6.84358V23.1526ZM6.84358 25.5394H8.37749V27.2269C8.37749 27.2723 7.8772 27.2961 7.57278 27.2961C7.29431 27.2961 6.96157 27.2747 6.84358 27.2377V25.5394ZM4.12975 16.4814C4.60172 16.1198 5.26248 15.8417 5.89964 15.6627V17.3049H4.12975V16.4814ZM4.12975 17.9016H5.89964V19.6917H4.12975V17.9016ZM4.12975 20.5271H5.89964V22.1979H4.12975V20.5271ZM4.12975 23.1526H5.89964V24.8234H4.12975V23.1526ZM4.12975 25.5394H5.89964V27.0682C5.26248 26.8892 4.60172 26.6111 4.12975 26.2495V25.5394ZM3.42179 24.8234H2.77519C2.40587 24.2267 2.11797 23.7493 1.93154 23.1526H3.42179V24.8234ZM2.71265 17.9016H3.42179V19.6917H1.90558C2.08139 18.9756 2.35632 18.4983 2.71265 17.9016ZM1.73921 20.5271H3.42179V22.1979H1.75101C1.70618 22.0785 1.6814 21.6274 1.6814 21.3183C1.6814 21.0391 1.70264 20.6464 1.73921 20.5271Z" fill="#66CCCC"/>
<path d="M27.1384 5.84774V3.79625C27.1384 1.73403 25.6292 0 23.5903 0H13.8075C11.7686 0 10.0294 1.73403 10.0294 3.79625V5.84774H12.0353V3.79625C12.0353 2.83556 12.8577 1.90946 13.8075 1.90946H23.5903C24.5402 1.90946 25.2505 2.83556 25.2505 3.79625V5.84774H27.1384Z" fill="#66CCCC"/>
</g>
<defs>
<clipPath id="clip0">
<rect width="37.2857" height="29" fill="white"/>
</clipPath>
</defs>
</svg>
