<svg width="31" height="30" viewBox="0 0 31 30" fill="none" xmlns="http://www.w3.org/2000/svg">
<g clip-path="url(#clip0)">
<path d="M26.4727 13.3105C27.2239 15.0025 27.6446 16.7058 27.6446 18.6098C27.6446 20.5161 27.2228 22.3344 26.4705 23.9136H27.3513C28.0574 22.3344 28.4499 20.5048 28.4499 18.6098C28.4499 16.7159 28.0574 15.0025 27.3525 13.3105H26.4727Z" fill="white"/>
<path d="M4.52611 13.3105H3.64523C2.9403 15.0025 2.54779 16.7159 2.54779 18.6098C2.54779 20.506 2.94142 22.3344 3.64748 23.9136H4.52836C3.77606 22.3344 3.35423 20.515 3.35423 18.6098C3.35423 16.7058 3.77493 15.0025 4.52611 13.3105Z" fill="white"/>
<path d="M22.1912 0H8.99149C7.18574 0 5.72174 1.46413 5.72174 3.2689V24.2528C5.72174 26.0587 7.18574 27.5217 8.99036 27.5217H22.19C23.9958 27.5217 25.4598 26.0576 25.4598 24.2528V3.2689C25.4598 1.46413 23.9969 0 22.1912 0ZM15.4847 1.93788C17.6841 1.93788 19.4662 3.72123 19.4662 5.91967C19.4662 8.11924 17.683 9.90146 15.4847 9.90146C13.2854 9.90146 11.5033 8.11812 11.5033 5.91967C11.5033 3.72123 13.2865 1.93788 15.4847 1.93788ZM6.98046 11.4321C6.98046 10.7599 7.52523 10.2162 8.19633 10.2162C8.86855 10.2162 9.41219 10.761 9.41219 11.4321C9.41219 12.1044 8.86742 12.6481 8.19633 12.6481C7.52523 12.6492 6.98046 12.1044 6.98046 11.4321ZM15.4847 26.0102C11.4593 26.0102 8.19633 22.747 8.19633 18.7212C8.19633 14.6954 11.4593 11.4321 15.4847 11.4321C19.5102 11.4321 22.7732 14.6954 22.7732 18.7212C22.7732 22.747 19.5102 26.0102 15.4847 26.0102ZM22.7991 12.6492C22.1269 12.6492 21.5832 12.1044 21.5832 11.4333C21.5832 10.761 22.128 10.2173 22.7991 10.2173C23.4713 10.2173 24.015 10.7621 24.015 11.4333C24.0161 12.1044 23.4713 12.6492 22.7991 12.6492Z" fill="white"/>
<path d="M28.5739 11.8438C29.6104 13.8741 30.1947 16.2 30.1947 18.659C30.1947 21.0808 29.6285 23.3492 28.6224 25.3796H29.5146C30.4665 23.3492 31 21.0684 31 18.659C31 16.2124 30.4507 13.8741 29.4706 11.8438H28.5739Z" fill="white"/>
<path d="M1.52942 11.8438C0.549281 13.8741 0 16.2124 0 18.659C0 21.0684 0.533491 23.3492 1.48543 25.3796H2.37759C1.37151 23.3492 0.805312 21.0808 0.805312 18.659C0.805312 16.1989 1.38956 13.8741 2.42609 11.8438H1.52942Z" fill="white"/>
<path d="M16.0374 12.6904C16.0374 12.6904 15.6742 12.6758 15.4847 12.6758C12.1236 12.6758 9.39862 15.3796 9.39862 18.741C9.39862 22.1024 12.1236 24.8174 15.4847 24.8174C18.8458 24.8174 21.6148 22.0877 21.6148 18.7263C21.6148 15.5826 19.1064 13.013 16.0374 12.6904ZM14.9704 23.7808C13.9553 23.6714 12.877 23.2112 12.0977 22.5152L14.9704 19.6422V23.7808ZM14.9704 18.0066L11.3048 21.6512C10.7194 20.8232 10.4205 19.8125 10.4205 18.7218C10.4205 16.0857 12.489 13.9188 14.9704 13.6616V18.0066ZM16.3239 23.765V19.6873L19.1109 22.4746C18.3563 23.1649 17.2262 23.6297 16.3239 23.765ZM19.7899 21.5981L16.3239 18.0495V13.6763C18.6924 13.9933 20.7012 16.1297 20.7012 18.7195C20.7012 19.7889 20.3527 20.7804 19.7899 21.5981Z" fill="white"/>
<path d="M15.4847 8.48156C16.8991 8.48156 18.045 7.3344 18.045 5.9199C18.045 4.50541 16.8979 3.35938 15.4847 3.35938C14.0703 3.35938 12.9244 4.50654 12.9244 5.9199C12.9244 7.33553 14.0703 8.48156 15.4847 8.48156Z" fill="white"/>
<path d="M22.6402 27.9746H18.2414V29.1026H22.6402V27.9746Z" fill="white"/>
<path d="M12.9403 27.9746H8.54156V29.1026H12.9403V27.9746Z" fill="white"/>
</g>
<defs>
<clipPath id="clip0">
<rect width="31" height="29.102" fill="white"/>
</clipPath>
</defs>
</svg>
