<svg width="25" height="36" viewBox="0 0 25 36" fill="#66CCCC" xmlns="http://www.w3.org/2000/svg">
<g clip-path="url(#clip0)">
<path d="M19.9249 28.3992C20.6113 20.7642 22.3261 18.5087 22.3261 18.5087L17.0096 13.0571C15.8742 13.9185 15.1695 17.4423 14.862 22.9033H11.3234C11.2471 16.1028 11.3509 6.59254 11.3509 5.115C11.3509 2.85952 11.3988 -1.0703 8.26451 0.273301C5.15873 1.6035 3.12012 3.05735 3.12012 3.05735L3.80644 4.62351C3.80644 4.62351 10.6585 -0.178002 8.6871 14.6696C7.42239 26.5745 7.57207 32.4362 10.1168 34.4722C14.0606 37.6272 19.2396 36.0343 19.9249 28.3992ZM11.3418 24.2438H14.7958C14.7663 25.0681 14.7429 25.6863 14.7256 26.3045H11.3876C11.3693 25.7893 11.354 25.0681 11.3418 24.2438ZM11.635 29.8428C11.5495 29.6037 11.4854 28.8794 11.4355 27.746H14.6695C14.2775 33.7231 12.1299 31.2348 11.635 29.8428Z" />
<path d="M13.9649 11.4278C13.9649 10.858 13.2938 10.2305 12.7307 10.2305H12.0301V12.4973H12.7307C13.2938 12.4973 13.9649 12.0614 13.9649 11.4916V11.4278Z" />
<path d="M24.7098 18.6928L24.7221 18.6795C25.0917 18.3054 25.0917 17.6985 24.7221 17.3245L18.0859 10.6096C17.7162 10.2356 17.1165 10.2356 16.7468 10.6096L16.7346 10.622C16.365 10.996 16.365 11.6029 16.7346 11.9769L23.3708 18.6918C23.7404 19.0669 24.3402 19.0669 24.7098 18.6928Z" />
<path d="M13.9649 7.55858C13.9649 6.98879 13.2938 6.41797 12.7307 6.41797H12.0301V8.58174H12.7307C13.2938 8.58174 13.9649 8.19226 13.9649 7.62247V7.55858Z" />
<path d="M0.503031 3.77547C-0.128308 3.77547 -0.206716 4.73371 0.503031 5.21283C1.21278 5.69195 3.11901 4.89342 3.11901 4.89342L2.47546 3.45605C2.47647 3.45605 1.13437 3.77547 0.503031 3.77547Z" />
<path d="M12.7307 14.249H12.0301V16.4128H12.7307C13.2938 16.4128 13.9649 15.9306 13.9649 15.3608V15.2969C13.9649 14.7261 13.2938 14.249 12.7307 14.249Z" />
</g>
</svg>
