<?xml version="1.0"?>
<svg xmlns="http://www.w3.org/2000/svg" xmlns:xlink="http://www.w3.org/1999/xlink" xmlns:svgjs="http://svgjs.com/svgjs" version="1.1" width="512" height="512" x="0" y="0" viewBox="0 0 480 480" style="enable-background:new 0 0 512 512" xml:space="preserve" class=""><g><g xmlns="http://www.w3.org/2000/svg" fill="#57a4ff"><path d="m456 8h-432c-8.835938 0-16 7.164062-16 16v272c0 8.835938 7.164062 16 16 16h432c8.835938 0 16-7.164062 16-16v-272c0-8.835938-7.164062-16-16-16zm-8 280h-416v-256h416zm0 0" fill="#ffffff" data-original="#57a4ff" style="" class=""/><path d="m200 232c0 13.253906-10.746094 24-24 24s-24-10.746094-24-24 10.746094-24 24-24 24 10.746094 24 24zm0 0" fill="#ffffff" data-original="#57a4ff" style="" class=""/><path d="m312 200c0 13.253906-10.746094 24-24 24s-24-10.746094-24-24 10.746094-24 24-24 24 10.746094 24 24zm0 0" fill="#ffffff" data-original="#57a4ff" style="" class=""/><path d="m312 64-112 32v32l112-32zm0 0" fill="#ffffff" data-original="#57a4ff" style="" class=""/><path d="m208 312h64v80h-64zm0 0" fill="#ffffff" data-original="#57a4ff" style="" class=""/><path d="m160 392v32h160v-32zm0 0" fill="#ffffff" data-original="#57a4ff" style="" class=""/></g><path xmlns="http://www.w3.org/2000/svg" d="m456 0h-432c-13.253906 0-24 10.746094-24 24v272c0 13.253906 10.746094 24 24 24h176v64h-40c-4.417969 0-8 3.582031-8 8v32c0 4.417969 3.582031 8 8 8h160c4.417969 0 8-3.582031 8-8v-32c0-4.417969-3.582031-8-8-8h-40v-64h176c13.253906 0 24-10.746094 24-24v-272c0-13.253906-10.746094-24-24-24zm-144 416h-144v-16h144zm-48-32h-48v-64h48zm200-88c0 4.417969-3.582031 8-8 8h-432c-4.417969 0-8-3.582031-8-8v-272c0-4.417969 3.582031-8 8-8h432c4.417969 0 8 3.582031 8 8zm0 0" fill="#ffffff" data-original="#1e81ce" style="" class=""/><path xmlns="http://www.w3.org/2000/svg" d="m176 264c17.671875 0 32-14.328125 32-32v-97.96875l96-27.421875v65.839844c-4.84375-2.878907-10.367188-4.417969-16-4.449219-17.671875 0-32 14.328125-32 32s14.328125 32 32 32 32-14.328125 32-32v-136c0-2.511719-1.179688-4.875-3.183594-6.386719-2.003906-1.507812-4.601562-1.992187-7.015625-1.300781l-112 32c-3.433593.980469-5.800781 4.117188-5.800781 7.6875v108.449219c-4.84375-2.878907-10.367188-4.417969-16-4.449219-17.671875 0-32 14.328125-32 32s14.328125 32 32 32zm112-48c-8.835938 0-16-7.164062-16-16s7.164062-16 16-16 16 7.164062 16 16-7.164062 16-16 16zm-80-113.96875 96-27.421875v15.359375l-96 27.421875zm-32 113.96875c8.835938 0 16 7.164062 16 16s-7.164062 16-16 16-16-7.164062-16-16 7.164062-16 16-16zm0 0" fill="#ffffff" data-original="#1e81ce" style="" class=""/><path xmlns="http://www.w3.org/2000/svg" d="m448 24h-416c-4.417969 0-8 3.582031-8 8v256c0 4.417969 3.582031 8 8 8h416c4.417969 0 8-3.582031 8-8v-256c0-4.417969-3.582031-8-8-8zm-8 256h-400v-240h400zm0 0" fill="#ffffff" data-original="#1e81ce" style="" class=""/></g></svg>
